<svg width="342" height="352" viewBox="0 0 342 352" fill="none" xmlns="http://www.w3.org/2000/svg">
<rect x="35" y="236" width="112" height="32" rx="16" fill="#132C14"/>
<rect x="35" y="194" width="272" height="32" rx="16" fill="#132C14"/>
<rect x="35" y="152" width="272" height="32" rx="16" fill="#132C14"/>
<rect x="195" y="110" width="112" height="32" rx="16" fill="#132C14"/>
<path d="M288.035 299V297.684H290.779V290.376H290.667L288.399 292.798L287.433 291.93L289.925 289.228H292.333V297.684H294.713V299H288.035Z" fill="#3C3844"/>
<path d="M246.163 293.246C246.77 293.246 247.218 293.12 247.507 292.868C247.797 292.607 247.941 292.275 247.941 291.874V291.776C247.941 291.328 247.801 290.987 247.521 290.754C247.241 290.511 246.863 290.39 246.387 290.39C245.921 290.39 245.524 290.497 245.197 290.712C244.871 290.917 244.595 291.207 244.371 291.58L243.321 290.67C243.471 290.455 243.639 290.25 243.825 290.054C244.012 289.858 244.231 289.69 244.483 289.55C244.735 289.401 245.02 289.284 245.337 289.2C245.655 289.107 246.019 289.06 246.429 289.06C246.887 289.06 247.311 289.116 247.703 289.228C248.095 289.34 248.431 289.508 248.711 289.732C248.991 289.947 249.211 290.213 249.369 290.53C249.528 290.838 249.607 291.188 249.607 291.58C249.607 291.888 249.556 292.168 249.453 292.42C249.36 292.672 249.225 292.896 249.047 293.092C248.879 293.279 248.679 293.433 248.445 293.554C248.221 293.675 247.983 293.764 247.731 293.82V293.89C248.011 293.946 248.273 294.039 248.515 294.17C248.767 294.291 248.987 294.455 249.173 294.66C249.36 294.856 249.505 295.094 249.607 295.374C249.719 295.645 249.775 295.957 249.775 296.312C249.775 296.741 249.691 297.133 249.523 297.488C249.355 297.833 249.117 298.132 248.809 298.384C248.511 298.636 248.147 298.832 247.717 298.972C247.288 299.103 246.812 299.168 246.289 299.168C245.832 299.168 245.431 299.117 245.085 299.014C244.74 298.921 244.432 298.795 244.161 298.636C243.9 298.468 243.667 298.281 243.461 298.076C243.265 297.861 243.093 297.642 242.943 297.418L244.105 296.508C244.227 296.704 244.353 296.886 244.483 297.054C244.623 297.213 244.777 297.353 244.945 297.474C245.123 297.586 245.319 297.675 245.533 297.74C245.757 297.805 246.009 297.838 246.289 297.838C246.887 297.838 247.344 297.698 247.661 297.418C247.979 297.129 248.137 296.732 248.137 296.228V296.13C248.137 295.626 247.969 295.243 247.633 294.982C247.297 294.721 246.821 294.59 246.205 294.59H245.169V293.246H246.163ZM252.342 299V297.684H255.086V290.376H254.974L252.706 292.798L251.74 291.93L254.232 289.228H256.64V297.684H259.02V299H252.342Z" fill="#7A7585"/>
<path d="M206.163 293.246C206.77 293.246 207.218 293.12 207.507 292.868C207.797 292.607 207.941 292.275 207.941 291.874V291.776C207.941 291.328 207.801 290.987 207.521 290.754C207.241 290.511 206.863 290.39 206.387 290.39C205.921 290.39 205.524 290.497 205.197 290.712C204.871 290.917 204.595 291.207 204.371 291.58L203.321 290.67C203.471 290.455 203.639 290.25 203.825 290.054C204.012 289.858 204.231 289.69 204.483 289.55C204.735 289.401 205.02 289.284 205.337 289.2C205.655 289.107 206.019 289.06 206.429 289.06C206.887 289.06 207.311 289.116 207.703 289.228C208.095 289.34 208.431 289.508 208.711 289.732C208.991 289.947 209.211 290.213 209.369 290.53C209.528 290.838 209.607 291.188 209.607 291.58C209.607 291.888 209.556 292.168 209.453 292.42C209.36 292.672 209.225 292.896 209.047 293.092C208.879 293.279 208.679 293.433 208.445 293.554C208.221 293.675 207.983 293.764 207.731 293.82V293.89C208.011 293.946 208.273 294.039 208.515 294.17C208.767 294.291 208.987 294.455 209.173 294.66C209.36 294.856 209.505 295.094 209.607 295.374C209.719 295.645 209.775 295.957 209.775 296.312C209.775 296.741 209.691 297.133 209.523 297.488C209.355 297.833 209.117 298.132 208.809 298.384C208.511 298.636 208.147 298.832 207.717 298.972C207.288 299.103 206.812 299.168 206.289 299.168C205.832 299.168 205.431 299.117 205.085 299.014C204.74 298.921 204.432 298.795 204.161 298.636C203.9 298.468 203.667 298.281 203.461 298.076C203.265 297.861 203.093 297.642 202.943 297.418L204.105 296.508C204.227 296.704 204.353 296.886 204.483 297.054C204.623 297.213 204.777 297.353 204.945 297.474C205.123 297.586 205.319 297.675 205.533 297.74C205.757 297.805 206.009 297.838 206.289 297.838C206.887 297.838 207.344 297.698 207.661 297.418C207.979 297.129 208.137 296.732 208.137 296.228V296.13C208.137 295.626 207.969 295.243 207.633 294.982C207.297 294.721 206.821 294.59 206.205 294.59H205.169V293.246H206.163ZM215.31 299.168C214.703 299.168 214.176 299.056 213.728 298.832C213.28 298.599 212.911 298.267 212.622 297.838C212.333 297.409 212.118 296.881 211.978 296.256C211.838 295.631 211.768 294.917 211.768 294.114C211.768 293.321 211.838 292.611 211.978 291.986C212.118 291.351 212.333 290.819 212.622 290.39C212.911 289.961 213.28 289.634 213.728 289.41C214.176 289.177 214.703 289.06 215.31 289.06C216.523 289.06 217.415 289.503 217.984 290.39C218.563 291.277 218.852 292.518 218.852 294.114C218.852 295.71 218.563 296.951 217.984 297.838C217.415 298.725 216.523 299.168 215.31 299.168ZM215.31 297.824C215.646 297.824 215.931 297.759 216.164 297.628C216.407 297.488 216.603 297.292 216.752 297.04C216.901 296.788 217.009 296.489 217.074 296.144C217.139 295.789 217.172 295.397 217.172 294.968V293.26C217.172 292.831 217.139 292.443 217.074 292.098C217.009 291.743 216.901 291.44 216.752 291.188C216.603 290.936 216.407 290.745 216.164 290.614C215.931 290.474 215.646 290.404 215.31 290.404C214.974 290.404 214.685 290.474 214.442 290.614C214.209 290.745 214.017 290.936 213.868 291.188C213.719 291.44 213.611 291.743 213.546 292.098C213.481 292.443 213.448 292.831 213.448 293.26V294.968C213.448 295.397 213.481 295.789 213.546 296.144C213.611 296.489 213.719 296.788 213.868 297.04C214.017 297.292 214.209 297.488 214.442 297.628C214.685 297.759 214.974 297.824 215.31 297.824Z" fill="#7A7585"/>
<path d="M170.069 299H163.433V297.488L166.555 294.702C167.05 294.254 167.428 293.829 167.689 293.428C167.96 293.017 168.095 292.588 168.095 292.14V291.958C168.095 291.482 167.951 291.109 167.661 290.838C167.381 290.567 166.999 290.432 166.513 290.432C166.243 290.432 166.005 290.474 165.799 290.558C165.603 290.633 165.431 290.74 165.281 290.88C165.132 291.02 165.006 291.183 164.903 291.37C164.81 291.557 164.735 291.757 164.679 291.972L163.293 291.44C163.396 291.132 163.536 290.838 163.713 290.558C163.891 290.269 164.115 290.012 164.385 289.788C164.656 289.564 164.973 289.387 165.337 289.256C165.711 289.125 166.145 289.06 166.639 289.06C167.134 289.06 167.577 289.135 167.969 289.284C168.361 289.424 168.688 289.625 168.949 289.886C169.22 290.138 169.425 290.441 169.565 290.796C169.705 291.151 169.775 291.538 169.775 291.958C169.775 292.35 169.715 292.714 169.593 293.05C169.472 293.386 169.304 293.703 169.089 294.002C168.875 294.301 168.623 294.585 168.333 294.856C168.053 295.127 167.755 295.402 167.437 295.682L165.141 297.656H170.069V299ZM178.726 292.868C178.726 293.577 178.619 294.245 178.404 294.87C178.189 295.495 177.914 296.069 177.578 296.592C177.242 297.115 176.864 297.581 176.444 297.992C176.033 298.403 175.627 298.739 175.226 299H173.126C173.677 298.599 174.171 298.211 174.61 297.838C175.049 297.465 175.431 297.082 175.758 296.69C176.085 296.298 176.355 295.883 176.57 295.444C176.794 295.005 176.967 294.525 177.088 294.002L176.99 293.974C176.887 294.17 176.766 294.357 176.626 294.534C176.495 294.702 176.337 294.851 176.15 294.982C175.973 295.113 175.767 295.215 175.534 295.29C175.301 295.365 175.03 295.402 174.722 295.402C174.311 295.402 173.929 295.332 173.574 295.192C173.229 295.052 172.925 294.851 172.664 294.59C172.412 294.319 172.211 294.002 172.062 293.638C171.922 293.265 171.852 292.845 171.852 292.378C171.852 291.893 171.931 291.445 172.09 291.034C172.258 290.623 172.491 290.273 172.79 289.984C173.089 289.695 173.448 289.471 173.868 289.312C174.288 289.144 174.759 289.06 175.282 289.06C175.823 289.06 176.304 289.149 176.724 289.326C177.153 289.503 177.513 289.76 177.802 290.096C178.101 290.423 178.329 290.819 178.488 291.286C178.647 291.753 178.726 292.28 178.726 292.868ZM175.282 294.128C175.851 294.128 176.295 293.979 176.612 293.68C176.929 293.372 177.088 292.924 177.088 292.336V292.14C177.088 291.552 176.929 291.109 176.612 290.81C176.295 290.502 175.851 290.348 175.282 290.348C174.713 290.348 174.269 290.502 173.952 290.81C173.635 291.109 173.476 291.552 173.476 292.14V292.336C173.476 292.924 173.635 293.372 173.952 293.68C174.269 293.979 174.713 294.128 175.282 294.128Z" fill="#7A7585"/>
<path d="M130.069 299H123.433V297.488L126.555 294.702C127.05 294.254 127.428 293.829 127.689 293.428C127.96 293.017 128.095 292.588 128.095 292.14V291.958C128.095 291.482 127.951 291.109 127.661 290.838C127.381 290.567 126.999 290.432 126.513 290.432C126.243 290.432 126.005 290.474 125.799 290.558C125.603 290.633 125.431 290.74 125.281 290.88C125.132 291.02 125.006 291.183 124.903 291.37C124.81 291.557 124.735 291.757 124.679 291.972L123.293 291.44C123.396 291.132 123.536 290.838 123.713 290.558C123.891 290.269 124.115 290.012 124.385 289.788C124.656 289.564 124.973 289.387 125.337 289.256C125.711 289.125 126.145 289.06 126.639 289.06C127.134 289.06 127.577 289.135 127.969 289.284C128.361 289.424 128.688 289.625 128.949 289.886C129.22 290.138 129.425 290.441 129.565 290.796C129.705 291.151 129.775 291.538 129.775 291.958C129.775 292.35 129.715 292.714 129.593 293.05C129.472 293.386 129.304 293.703 129.089 294.002C128.875 294.301 128.623 294.585 128.333 294.856C128.053 295.127 127.755 295.402 127.437 295.682L125.141 297.656H130.069V299ZM135.31 299.168C134.741 299.168 134.237 299.098 133.798 298.958C133.369 298.809 133.005 298.608 132.706 298.356C132.417 298.104 132.193 297.805 132.034 297.46C131.885 297.115 131.81 296.741 131.81 296.34C131.81 295.687 131.987 295.164 132.342 294.772C132.706 294.371 133.182 294.091 133.77 293.932V293.82C133.266 293.643 132.86 293.363 132.552 292.98C132.253 292.597 132.104 292.126 132.104 291.566C132.104 291.193 132.174 290.852 132.314 290.544C132.463 290.236 132.673 289.975 132.944 289.76C133.215 289.536 133.551 289.363 133.952 289.242C134.353 289.121 134.806 289.06 135.31 289.06C135.814 289.06 136.267 289.121 136.668 289.242C137.069 289.363 137.405 289.536 137.676 289.76C137.947 289.975 138.152 290.236 138.292 290.544C138.441 290.852 138.516 291.193 138.516 291.566C138.516 292.126 138.362 292.597 138.054 292.98C137.755 293.363 137.354 293.643 136.85 293.82V293.932C137.438 294.091 137.909 294.371 138.264 294.772C138.628 295.164 138.81 295.687 138.81 296.34C138.81 296.741 138.731 297.115 138.572 297.46C138.423 297.805 138.199 298.104 137.9 298.356C137.611 298.608 137.247 298.809 136.808 298.958C136.379 299.098 135.879 299.168 135.31 299.168ZM135.31 297.894C135.898 297.894 136.351 297.759 136.668 297.488C136.995 297.217 137.158 296.839 137.158 296.354V296.074C137.158 295.589 136.995 295.211 136.668 294.94C136.351 294.669 135.898 294.534 135.31 294.534C134.722 294.534 134.265 294.669 133.938 294.94C133.621 295.211 133.462 295.589 133.462 296.074V296.354C133.462 296.839 133.621 297.217 133.938 297.488C134.265 297.759 134.722 297.894 135.31 297.894ZM135.31 293.316C135.851 293.316 136.262 293.199 136.542 292.966C136.831 292.733 136.976 292.392 136.976 291.944V291.706C136.976 291.258 136.831 290.917 136.542 290.684C136.262 290.451 135.851 290.334 135.31 290.334C134.769 290.334 134.353 290.451 134.064 290.684C133.784 290.917 133.644 291.258 133.644 291.706V291.944C133.644 292.392 133.784 292.733 134.064 292.966C134.353 293.199 134.769 293.316 135.31 293.316Z" fill="#7A7585"/>
<path d="M90.0695 299H83.4335V297.488L86.5555 294.702C87.0501 294.254 87.4281 293.829 87.6895 293.428C87.9601 293.017 88.0955 292.588 88.0955 292.14V291.958C88.0955 291.482 87.9508 291.109 87.6615 290.838C87.3815 290.567 86.9988 290.432 86.5135 290.432C86.2428 290.432 86.0048 290.474 85.7995 290.558C85.6035 290.633 85.4308 290.74 85.2815 290.88C85.1321 291.02 85.0061 291.183 84.9035 291.37C84.8101 291.557 84.7355 291.757 84.6795 291.972L83.2935 291.44C83.3961 291.132 83.5361 290.838 83.7135 290.558C83.8908 290.269 84.1148 290.012 84.3855 289.788C84.6561 289.564 84.9735 289.387 85.3375 289.256C85.7108 289.125 86.1448 289.06 86.6395 289.06C87.1341 289.06 87.5775 289.135 87.9695 289.284C88.3615 289.424 88.6881 289.625 88.9495 289.886C89.2201 290.138 89.4255 290.441 89.5655 290.796C89.7055 291.151 89.7755 291.538 89.7755 291.958C89.7755 292.35 89.7148 292.714 89.5935 293.05C89.4721 293.386 89.3041 293.703 89.0895 294.002C88.8748 294.301 88.6228 294.585 88.3335 294.856C88.0535 295.127 87.7548 295.402 87.4375 295.682L85.1415 297.656H90.0695V299ZM93.504 299L97.046 290.53H93.35V292.336H91.992V289.228H98.614V290.6L95.17 299H93.504Z" fill="#7A7585"/>
<path d="M50.0695 299H43.4335V297.488L46.5555 294.702C47.0501 294.254 47.4281 293.829 47.6895 293.428C47.9601 293.017 48.0955 292.588 48.0955 292.14V291.958C48.0955 291.482 47.9508 291.109 47.6615 290.838C47.3815 290.567 46.9988 290.432 46.5135 290.432C46.2428 290.432 46.0048 290.474 45.7995 290.558C45.6035 290.633 45.4308 290.74 45.2815 290.88C45.1321 291.02 45.0061 291.183 44.9035 291.37C44.8101 291.557 44.7355 291.757 44.6795 291.972L43.2935 291.44C43.3961 291.132 43.5361 290.838 43.7135 290.558C43.8908 290.269 44.1148 290.012 44.3855 289.788C44.6561 289.564 44.9735 289.387 45.3375 289.256C45.7108 289.125 46.1448 289.06 46.6395 289.06C47.1341 289.06 47.5775 289.135 47.9695 289.284C48.3615 289.424 48.6881 289.625 48.9495 289.886C49.2201 290.138 49.4255 290.441 49.5655 290.796C49.7055 291.151 49.7755 291.538 49.7755 291.958C49.7755 292.35 49.7148 292.714 49.5935 293.05C49.4721 293.386 49.3041 293.703 49.0895 294.002C48.8748 294.301 48.6228 294.585 48.3335 294.856C48.0535 295.127 47.7548 295.402 47.4375 295.682L45.1415 297.656H50.0695V299ZM55.338 299.168C54.7967 299.168 54.3113 299.079 53.882 298.902C53.462 298.725 53.1027 298.473 52.804 298.146C52.5147 297.81 52.2907 297.409 52.132 296.942C51.9733 296.475 51.894 295.948 51.894 295.36C51.894 294.651 52.0013 293.983 52.216 293.358C52.4307 292.733 52.706 292.159 53.042 291.636C53.378 291.113 53.7513 290.651 54.162 290.25C54.582 289.839 54.9927 289.499 55.394 289.228H57.494C56.9433 289.629 56.4487 290.017 56.01 290.39C55.5713 290.763 55.1887 291.146 54.862 291.538C54.5353 291.93 54.26 292.345 54.036 292.784C53.8213 293.223 53.6533 293.703 53.532 294.226L53.63 294.254C53.7327 294.058 53.8493 293.876 53.98 293.708C54.12 293.531 54.2787 293.377 54.456 293.246C54.6427 293.115 54.8527 293.013 55.086 292.938C55.3193 292.863 55.59 292.826 55.898 292.826C56.3087 292.826 56.6867 292.896 57.032 293.036C57.3867 293.176 57.69 293.381 57.942 293.652C58.2033 293.913 58.404 294.231 58.544 294.604C58.6933 294.977 58.768 295.393 58.768 295.85C58.768 296.345 58.684 296.797 58.516 297.208C58.3573 297.609 58.1287 297.955 57.83 298.244C57.5313 298.533 57.1673 298.762 56.738 298.93C56.318 299.089 55.8513 299.168 55.338 299.168ZM55.338 297.88C55.9073 297.88 56.3507 297.731 56.668 297.432C56.9853 297.124 57.144 296.676 57.144 296.088V295.892C57.144 295.304 56.9853 294.861 56.668 294.562C56.3507 294.254 55.9073 294.1 55.338 294.1C54.7687 294.1 54.3253 294.254 54.008 294.562C53.6907 294.861 53.532 295.304 53.532 295.892V296.088C53.532 296.676 53.6907 297.124 54.008 297.432C54.3253 297.731 54.7687 297.88 55.338 297.88Z" fill="#7A7585"/>
<path d="M290.069 257H283.433V255.488L286.555 252.702C287.05 252.254 287.428 251.829 287.689 251.428C287.96 251.017 288.095 250.588 288.095 250.14V249.958C288.095 249.482 287.951 249.109 287.661 248.838C287.381 248.567 286.999 248.432 286.513 248.432C286.243 248.432 286.005 248.474 285.799 248.558C285.603 248.633 285.431 248.74 285.281 248.88C285.132 249.02 285.006 249.183 284.903 249.37C284.81 249.557 284.735 249.757 284.679 249.972L283.293 249.44C283.396 249.132 283.536 248.838 283.713 248.558C283.891 248.269 284.115 248.012 284.385 247.788C284.656 247.564 284.973 247.387 285.337 247.256C285.711 247.125 286.145 247.06 286.639 247.06C287.134 247.06 287.577 247.135 287.969 247.284C288.361 247.424 288.688 247.625 288.949 247.886C289.22 248.138 289.425 248.441 289.565 248.796C289.705 249.151 289.775 249.538 289.775 249.958C289.775 250.35 289.715 250.714 289.593 251.05C289.472 251.386 289.304 251.703 289.089 252.002C288.875 252.301 288.623 252.585 288.333 252.856C288.053 253.127 287.755 253.402 287.437 253.682L285.141 255.656H290.069V257ZM298.222 248.6H293.882L293.63 252.058H293.728C293.84 251.862 293.957 251.689 294.078 251.54C294.199 251.381 294.339 251.246 294.498 251.134C294.657 251.022 294.839 250.938 295.044 250.882C295.249 250.817 295.492 250.784 295.772 250.784C296.192 250.784 296.579 250.854 296.934 250.994C297.298 251.134 297.611 251.335 297.872 251.596C298.143 251.857 298.353 252.179 298.502 252.562C298.651 252.935 298.726 253.36 298.726 253.836C298.726 254.321 298.647 254.769 298.488 255.18C298.339 255.591 298.115 255.945 297.816 256.244C297.517 256.533 297.149 256.762 296.71 256.93C296.281 257.089 295.791 257.168 295.24 257.168C294.801 257.168 294.414 257.117 294.078 257.014C293.742 256.921 293.443 256.795 293.182 256.636C292.93 256.468 292.706 256.281 292.51 256.076C292.323 255.861 292.155 255.642 292.006 255.418L293.154 254.508C293.275 254.704 293.401 254.881 293.532 255.04C293.663 255.199 293.812 255.339 293.98 255.46C294.148 255.581 294.335 255.675 294.54 255.74C294.755 255.805 294.997 255.838 295.268 255.838C295.847 255.838 296.29 255.679 296.598 255.362C296.915 255.045 297.074 254.606 297.074 254.046V253.878C297.074 253.318 296.915 252.879 296.598 252.562C296.29 252.245 295.847 252.086 295.268 252.086C294.848 252.086 294.512 252.165 294.26 252.324C294.008 252.483 293.793 252.66 293.616 252.856L292.314 252.674L292.678 247.228H298.222V248.6Z" fill="#7A7585"/>
<path d="M250.069 257H243.433V255.488L246.555 252.702C247.05 252.254 247.428 251.829 247.689 251.428C247.96 251.017 248.095 250.588 248.095 250.14V249.958C248.095 249.482 247.951 249.109 247.661 248.838C247.381 248.567 246.999 248.432 246.513 248.432C246.243 248.432 246.005 248.474 245.799 248.558C245.603 248.633 245.431 248.74 245.281 248.88C245.132 249.02 245.006 249.183 244.903 249.37C244.81 249.557 244.735 249.757 244.679 249.972L243.293 249.44C243.396 249.132 243.536 248.838 243.713 248.558C243.891 248.269 244.115 248.012 244.385 247.788C244.656 247.564 244.973 247.387 245.337 247.256C245.711 247.125 246.145 247.06 246.639 247.06C247.134 247.06 247.577 247.135 247.969 247.284C248.361 247.424 248.688 247.625 248.949 247.886C249.22 248.138 249.425 248.441 249.565 248.796C249.705 249.151 249.775 249.538 249.775 249.958C249.775 250.35 249.715 250.714 249.593 251.05C249.472 251.386 249.304 251.703 249.089 252.002C248.875 252.301 248.623 252.585 248.333 252.856C248.053 253.127 247.755 253.402 247.437 253.682L245.141 255.656H250.069V257ZM256.136 257V255.096H251.6V253.738L255.562 247.228H257.634V253.85H258.964V255.096H257.634V257H256.136ZM252.944 253.85H256.136V248.67H256.038L252.944 253.85Z" fill="#7A7585"/>
<path d="M210.069 257H203.433V255.488L206.555 252.702C207.05 252.254 207.428 251.829 207.689 251.428C207.96 251.017 208.095 250.588 208.095 250.14V249.958C208.095 249.482 207.951 249.109 207.661 248.838C207.381 248.567 206.999 248.432 206.513 248.432C206.243 248.432 206.005 248.474 205.799 248.558C205.603 248.633 205.431 248.74 205.281 248.88C205.132 249.02 205.006 249.183 204.903 249.37C204.81 249.557 204.735 249.757 204.679 249.972L203.293 249.44C203.396 249.132 203.536 248.838 203.713 248.558C203.891 248.269 204.115 248.012 204.385 247.788C204.656 247.564 204.973 247.387 205.337 247.256C205.711 247.125 206.145 247.06 206.639 247.06C207.134 247.06 207.577 247.135 207.969 247.284C208.361 247.424 208.688 247.625 208.949 247.886C209.22 248.138 209.425 248.441 209.565 248.796C209.705 249.151 209.775 249.538 209.775 249.958C209.775 250.35 209.715 250.714 209.593 251.05C209.472 251.386 209.304 251.703 209.089 252.002C208.875 252.301 208.623 252.585 208.333 252.856C208.053 253.127 207.755 253.402 207.437 253.682L205.141 255.656H210.069V257ZM214.778 251.246C215.385 251.246 215.833 251.12 216.122 250.868C216.411 250.607 216.556 250.275 216.556 249.874V249.776C216.556 249.328 216.416 248.987 216.136 248.754C215.856 248.511 215.478 248.39 215.002 248.39C214.535 248.39 214.139 248.497 213.812 248.712C213.485 248.917 213.21 249.207 212.986 249.58L211.936 248.67C212.085 248.455 212.253 248.25 212.44 248.054C212.627 247.858 212.846 247.69 213.098 247.55C213.35 247.401 213.635 247.284 213.952 247.2C214.269 247.107 214.633 247.06 215.044 247.06C215.501 247.06 215.926 247.116 216.318 247.228C216.71 247.34 217.046 247.508 217.326 247.732C217.606 247.947 217.825 248.213 217.984 248.53C218.143 248.838 218.222 249.188 218.222 249.58C218.222 249.888 218.171 250.168 218.068 250.42C217.975 250.672 217.839 250.896 217.662 251.092C217.494 251.279 217.293 251.433 217.06 251.554C216.836 251.675 216.598 251.764 216.346 251.82V251.89C216.626 251.946 216.887 252.039 217.13 252.17C217.382 252.291 217.601 252.455 217.788 252.66C217.975 252.856 218.119 253.094 218.222 253.374C218.334 253.645 218.39 253.957 218.39 254.312C218.39 254.741 218.306 255.133 218.138 255.488C217.97 255.833 217.732 256.132 217.424 256.384C217.125 256.636 216.761 256.832 216.332 256.972C215.903 257.103 215.427 257.168 214.904 257.168C214.447 257.168 214.045 257.117 213.7 257.014C213.355 256.921 213.047 256.795 212.776 256.636C212.515 256.468 212.281 256.281 212.076 256.076C211.88 255.861 211.707 255.642 211.558 255.418L212.72 254.508C212.841 254.704 212.967 254.886 213.098 255.054C213.238 255.213 213.392 255.353 213.56 255.474C213.737 255.586 213.933 255.675 214.148 255.74C214.372 255.805 214.624 255.838 214.904 255.838C215.501 255.838 215.959 255.698 216.276 255.418C216.593 255.129 216.752 254.732 216.752 254.228V254.13C216.752 253.626 216.584 253.243 216.248 252.982C215.912 252.721 215.436 252.59 214.82 252.59H213.784V251.246H214.778Z" fill="#7A7585"/>
<path d="M170.069 257H163.433V255.488L166.555 252.702C167.05 252.254 167.428 251.829 167.689 251.428C167.96 251.017 168.095 250.588 168.095 250.14V249.958C168.095 249.482 167.951 249.109 167.661 248.838C167.381 248.567 166.999 248.432 166.513 248.432C166.243 248.432 166.005 248.474 165.799 248.558C165.603 248.633 165.431 248.74 165.281 248.88C165.132 249.02 165.006 249.183 164.903 249.37C164.81 249.557 164.735 249.757 164.679 249.972L163.293 249.44C163.396 249.132 163.536 248.838 163.713 248.558C163.891 248.269 164.115 248.012 164.385 247.788C164.656 247.564 164.973 247.387 165.337 247.256C165.711 247.125 166.145 247.06 166.639 247.06C167.134 247.06 167.577 247.135 167.969 247.284C168.361 247.424 168.688 247.625 168.949 247.886C169.22 248.138 169.425 248.441 169.565 248.796C169.705 249.151 169.775 249.538 169.775 249.958C169.775 250.35 169.715 250.714 169.593 251.05C169.472 251.386 169.304 251.703 169.089 252.002C168.875 252.301 168.623 252.585 168.333 252.856C168.053 253.127 167.755 253.402 167.437 253.682L165.141 255.656H170.069V257ZM178.684 257H172.048V255.488L175.17 252.702C175.665 252.254 176.043 251.829 176.304 251.428C176.575 251.017 176.71 250.588 176.71 250.14V249.958C176.71 249.482 176.565 249.109 176.276 248.838C175.996 248.567 175.613 248.432 175.128 248.432C174.857 248.432 174.619 248.474 174.414 248.558C174.218 248.633 174.045 248.74 173.896 248.88C173.747 249.02 173.621 249.183 173.518 249.37C173.425 249.557 173.35 249.757 173.294 249.972L171.908 249.44C172.011 249.132 172.151 248.838 172.328 248.558C172.505 248.269 172.729 248.012 173 247.788C173.271 247.564 173.588 247.387 173.952 247.256C174.325 247.125 174.759 247.06 175.254 247.06C175.749 247.06 176.192 247.135 176.584 247.284C176.976 247.424 177.303 247.625 177.564 247.886C177.835 248.138 178.04 248.441 178.18 248.796C178.32 249.151 178.39 249.538 178.39 249.958C178.39 250.35 178.329 250.714 178.208 251.05C178.087 251.386 177.919 251.703 177.704 252.002C177.489 252.301 177.237 252.585 176.948 252.856C176.668 253.127 176.369 253.402 176.052 253.682L173.756 255.656H178.684V257Z" fill="#7A7585"/>
<circle cx="131" cy="252" r="15" fill="#1F4921" stroke="#2B662E" stroke-width="2"/>
<path d="M130.069 257H123.433V255.488L126.555 252.702C127.05 252.254 127.428 251.829 127.689 251.428C127.96 251.017 128.095 250.588 128.095 250.14V249.958C128.095 249.482 127.951 249.109 127.661 248.838C127.381 248.567 126.999 248.432 126.513 248.432C126.243 248.432 126.005 248.474 125.799 248.558C125.603 248.633 125.431 248.74 125.281 248.88C125.132 249.02 125.006 249.183 124.903 249.37C124.81 249.557 124.735 249.757 124.679 249.972L123.293 249.44C123.396 249.132 123.536 248.838 123.713 248.558C123.891 248.269 124.115 248.012 124.385 247.788C124.656 247.564 124.973 247.387 125.337 247.256C125.711 247.125 126.145 247.06 126.639 247.06C127.134 247.06 127.577 247.135 127.969 247.284C128.361 247.424 128.688 247.625 128.949 247.886C129.22 248.138 129.425 248.441 129.565 248.796C129.705 249.151 129.775 249.538 129.775 249.958C129.775 250.35 129.715 250.714 129.593 251.05C129.472 251.386 129.304 251.703 129.089 252.002C128.875 252.301 128.623 252.585 128.333 252.856C128.053 253.127 127.755 253.402 127.437 253.682L125.141 255.656H130.069V257ZM132.342 257V255.684H135.086V248.376H134.974L132.706 250.798L131.74 249.93L134.232 247.228H136.64V255.684H139.02V257H132.342Z" fill="white"/>
<path d="M90.0695 257H83.4335V255.488L86.5555 252.702C87.0501 252.254 87.4281 251.829 87.6895 251.428C87.9601 251.017 88.0955 250.588 88.0955 250.14V249.958C88.0955 249.482 87.9508 249.109 87.6615 248.838C87.3815 248.567 86.9988 248.432 86.5135 248.432C86.2428 248.432 86.0048 248.474 85.7995 248.558C85.6035 248.633 85.4308 248.74 85.2815 248.88C85.1321 249.02 85.0061 249.183 84.9035 249.37C84.8101 249.557 84.7355 249.757 84.6795 249.972L83.2935 249.44C83.3961 249.132 83.5361 248.838 83.7135 248.558C83.8908 248.269 84.1148 248.012 84.3855 247.788C84.6561 247.564 84.9735 247.387 85.3375 247.256C85.7108 247.125 86.1448 247.06 86.6395 247.06C87.1341 247.06 87.5775 247.135 87.9695 247.284C88.3615 247.424 88.6881 247.625 88.9495 247.886C89.2201 248.138 89.4255 248.441 89.5655 248.796C89.7055 249.151 89.7755 249.538 89.7755 249.958C89.7755 250.35 89.7148 250.714 89.5935 251.05C89.4721 251.386 89.3041 251.703 89.0895 252.002C88.8748 252.301 88.6228 252.585 88.3335 252.856C88.0535 253.127 87.7548 253.402 87.4375 253.682L85.1415 255.656H90.0695V257ZM95.31 257.168C94.7033 257.168 94.176 257.056 93.728 256.832C93.28 256.599 92.9113 256.267 92.622 255.838C92.3327 255.409 92.118 254.881 91.978 254.256C91.838 253.631 91.768 252.917 91.768 252.114C91.768 251.321 91.838 250.611 91.978 249.986C92.118 249.351 92.3327 248.819 92.622 248.39C92.9113 247.961 93.28 247.634 93.728 247.41C94.176 247.177 94.7033 247.06 95.31 247.06C96.5233 247.06 97.4147 247.503 97.984 248.39C98.5627 249.277 98.852 250.518 98.852 252.114C98.852 253.71 98.5627 254.951 97.984 255.838C97.4147 256.725 96.5233 257.168 95.31 257.168ZM95.31 255.824C95.646 255.824 95.9307 255.759 96.164 255.628C96.4067 255.488 96.6027 255.292 96.752 255.04C96.9013 254.788 97.0087 254.489 97.074 254.144C97.1393 253.789 97.172 253.397 97.172 252.968V251.26C97.172 250.831 97.1393 250.443 97.074 250.098C97.0087 249.743 96.9013 249.44 96.752 249.188C96.6027 248.936 96.4067 248.745 96.164 248.614C95.9307 248.474 95.646 248.404 95.31 248.404C94.974 248.404 94.6847 248.474 94.442 248.614C94.2087 248.745 94.0173 248.936 93.868 249.188C93.7187 249.44 93.6113 249.743 93.546 250.098C93.4807 250.443 93.448 250.831 93.448 251.26V252.968C93.448 253.397 93.4807 253.789 93.546 254.144C93.6113 254.489 93.7187 254.788 93.868 255.04C94.0173 255.292 94.2087 255.488 94.442 255.628C94.6847 255.759 94.974 255.824 95.31 255.824Z" fill="white"/>
<path d="M43.7275 257V255.684H46.4715V248.376H46.3595L44.0915 250.798L43.1255 249.93L45.6175 247.228H48.0255V255.684H50.4055V257H43.7275ZM58.726 250.868C58.726 251.577 58.6187 252.245 58.404 252.87C58.1893 253.495 57.914 254.069 57.578 254.592C57.242 255.115 56.864 255.581 56.444 255.992C56.0333 256.403 55.6273 256.739 55.226 257H53.126C53.6767 256.599 54.1713 256.211 54.61 255.838C55.0487 255.465 55.4313 255.082 55.758 254.69C56.0847 254.298 56.3553 253.883 56.57 253.444C56.794 253.005 56.9667 252.525 57.088 252.002L56.99 251.974C56.8873 252.17 56.766 252.357 56.626 252.534C56.4953 252.702 56.3367 252.851 56.15 252.982C55.9727 253.113 55.7673 253.215 55.534 253.29C55.3007 253.365 55.03 253.402 54.722 253.402C54.3113 253.402 53.9287 253.332 53.574 253.192C53.2287 253.052 52.9253 252.851 52.664 252.59C52.412 252.319 52.2113 252.002 52.062 251.638C51.922 251.265 51.852 250.845 51.852 250.378C51.852 249.893 51.9313 249.445 52.09 249.034C52.258 248.623 52.4913 248.273 52.79 247.984C53.0887 247.695 53.448 247.471 53.868 247.312C54.288 247.144 54.7593 247.06 55.282 247.06C55.8233 247.06 56.304 247.149 56.724 247.326C57.1533 247.503 57.5127 247.76 57.802 248.096C58.1007 248.423 58.3293 248.819 58.488 249.286C58.6467 249.753 58.726 250.28 58.726 250.868ZM55.282 252.128C55.8513 252.128 56.2947 251.979 56.612 251.68C56.9293 251.372 57.088 250.924 57.088 250.336V250.14C57.088 249.552 56.9293 249.109 56.612 248.81C56.2947 248.502 55.8513 248.348 55.282 248.348C54.7127 248.348 54.2693 248.502 53.952 248.81C53.6347 249.109 53.476 249.552 53.476 250.14V250.336C53.476 250.924 53.6347 251.372 53.952 251.68C54.2693 251.979 54.7127 252.128 55.282 252.128Z" fill="white"/>
<path d="M283.727 215V213.684H286.471V206.376H286.359L284.091 208.798L283.125 207.93L285.617 205.228H288.025V213.684H290.405V215H283.727ZM295.31 215.168C294.741 215.168 294.237 215.098 293.798 214.958C293.369 214.809 293.005 214.608 292.706 214.356C292.417 214.104 292.193 213.805 292.034 213.46C291.885 213.115 291.81 212.741 291.81 212.34C291.81 211.687 291.987 211.164 292.342 210.772C292.706 210.371 293.182 210.091 293.77 209.932V209.82C293.266 209.643 292.86 209.363 292.552 208.98C292.253 208.597 292.104 208.126 292.104 207.566C292.104 207.193 292.174 206.852 292.314 206.544C292.463 206.236 292.673 205.975 292.944 205.76C293.215 205.536 293.551 205.363 293.952 205.242C294.353 205.121 294.806 205.06 295.31 205.06C295.814 205.06 296.267 205.121 296.668 205.242C297.069 205.363 297.405 205.536 297.676 205.76C297.947 205.975 298.152 206.236 298.292 206.544C298.441 206.852 298.516 207.193 298.516 207.566C298.516 208.126 298.362 208.597 298.054 208.98C297.755 209.363 297.354 209.643 296.85 209.82V209.932C297.438 210.091 297.909 210.371 298.264 210.772C298.628 211.164 298.81 211.687 298.81 212.34C298.81 212.741 298.731 213.115 298.572 213.46C298.423 213.805 298.199 214.104 297.9 214.356C297.611 214.608 297.247 214.809 296.808 214.958C296.379 215.098 295.879 215.168 295.31 215.168ZM295.31 213.894C295.898 213.894 296.351 213.759 296.668 213.488C296.995 213.217 297.158 212.839 297.158 212.354V212.074C297.158 211.589 296.995 211.211 296.668 210.94C296.351 210.669 295.898 210.534 295.31 210.534C294.722 210.534 294.265 210.669 293.938 210.94C293.621 211.211 293.462 211.589 293.462 212.074V212.354C293.462 212.839 293.621 213.217 293.938 213.488C294.265 213.759 294.722 213.894 295.31 213.894ZM295.31 209.316C295.851 209.316 296.262 209.199 296.542 208.966C296.831 208.733 296.976 208.392 296.976 207.944V207.706C296.976 207.258 296.831 206.917 296.542 206.684C296.262 206.451 295.851 206.334 295.31 206.334C294.769 206.334 294.353 206.451 294.064 206.684C293.784 206.917 293.644 207.258 293.644 207.706V207.944C293.644 208.392 293.784 208.733 294.064 208.966C294.353 209.199 294.769 209.316 295.31 209.316Z" fill="white"/>
<path d="M243.727 215V213.684H246.471V206.376H246.359L244.091 208.798L243.125 207.93L245.617 205.228H248.025V213.684H250.405V215H243.727ZM253.504 215L257.046 206.53H253.35V208.336H251.992V205.228H258.614V206.6L255.17 215H253.504Z" fill="white"/>
<path d="M203.727 215V213.684H206.471V206.376H206.359L204.091 208.798L203.125 207.93L205.617 205.228H208.025V213.684H210.405V215H203.727ZM215.338 215.168C214.797 215.168 214.311 215.079 213.882 214.902C213.462 214.725 213.103 214.473 212.804 214.146C212.515 213.81 212.291 213.409 212.132 212.942C211.973 212.475 211.894 211.948 211.894 211.36C211.894 210.651 212.001 209.983 212.216 209.358C212.431 208.733 212.706 208.159 213.042 207.636C213.378 207.113 213.751 206.651 214.162 206.25C214.582 205.839 214.993 205.499 215.394 205.228H217.494C216.943 205.629 216.449 206.017 216.01 206.39C215.571 206.763 215.189 207.146 214.862 207.538C214.535 207.93 214.26 208.345 214.036 208.784C213.821 209.223 213.653 209.703 213.532 210.226L213.63 210.254C213.733 210.058 213.849 209.876 213.98 209.708C214.12 209.531 214.279 209.377 214.456 209.246C214.643 209.115 214.853 209.013 215.086 208.938C215.319 208.863 215.59 208.826 215.898 208.826C216.309 208.826 216.687 208.896 217.032 209.036C217.387 209.176 217.69 209.381 217.942 209.652C218.203 209.913 218.404 210.231 218.544 210.604C218.693 210.977 218.768 211.393 218.768 211.85C218.768 212.345 218.684 212.797 218.516 213.208C218.357 213.609 218.129 213.955 217.83 214.244C217.531 214.533 217.167 214.762 216.738 214.93C216.318 215.089 215.851 215.168 215.338 215.168ZM215.338 213.88C215.907 213.88 216.351 213.731 216.668 213.432C216.985 213.124 217.144 212.676 217.144 212.088V211.892C217.144 211.304 216.985 210.861 216.668 210.562C216.351 210.254 215.907 210.1 215.338 210.1C214.769 210.1 214.325 210.254 214.008 210.562C213.691 210.861 213.532 211.304 213.532 211.892V212.088C213.532 212.676 213.691 213.124 214.008 213.432C214.325 213.731 214.769 213.88 215.338 213.88Z" fill="white"/>
<path d="M163.727 215V213.684H166.471V206.376H166.359L164.091 208.798L163.125 207.93L165.617 205.228H168.025V213.684H170.405V215H163.727ZM178.222 206.6H173.882L173.63 210.058H173.728C173.84 209.862 173.957 209.689 174.078 209.54C174.199 209.381 174.339 209.246 174.498 209.134C174.657 209.022 174.839 208.938 175.044 208.882C175.249 208.817 175.492 208.784 175.772 208.784C176.192 208.784 176.579 208.854 176.934 208.994C177.298 209.134 177.611 209.335 177.872 209.596C178.143 209.857 178.353 210.179 178.502 210.562C178.651 210.935 178.726 211.36 178.726 211.836C178.726 212.321 178.647 212.769 178.488 213.18C178.339 213.591 178.115 213.945 177.816 214.244C177.517 214.533 177.149 214.762 176.71 214.93C176.281 215.089 175.791 215.168 175.24 215.168C174.801 215.168 174.414 215.117 174.078 215.014C173.742 214.921 173.443 214.795 173.182 214.636C172.93 214.468 172.706 214.281 172.51 214.076C172.323 213.861 172.155 213.642 172.006 213.418L173.154 212.508C173.275 212.704 173.401 212.881 173.532 213.04C173.663 213.199 173.812 213.339 173.98 213.46C174.148 213.581 174.335 213.675 174.54 213.74C174.755 213.805 174.997 213.838 175.268 213.838C175.847 213.838 176.29 213.679 176.598 213.362C176.915 213.045 177.074 212.606 177.074 212.046V211.878C177.074 211.318 176.915 210.879 176.598 210.562C176.29 210.245 175.847 210.086 175.268 210.086C174.848 210.086 174.512 210.165 174.26 210.324C174.008 210.483 173.793 210.66 173.616 210.856L172.314 210.674L172.678 205.228H178.222V206.6Z" fill="white"/>
<path d="M123.727 215V213.684H126.471V206.376H126.359L124.091 208.798L123.125 207.93L125.617 205.228H128.025V213.684H130.405V215H123.727ZM136.136 215V213.096H131.6V211.738L135.562 205.228H137.634V211.85H138.964V213.096H137.634V215H136.136ZM132.944 211.85H136.136V206.67H136.038L132.944 211.85Z" fill="white"/>
<path d="M83.7275 215V213.684H86.4715V206.376H86.3595L84.0915 208.798L83.1255 207.93L85.6175 205.228H88.0255V213.684H90.4055V215H83.7275ZM94.778 209.246C95.3847 209.246 95.8327 209.12 96.122 208.868C96.4113 208.607 96.556 208.275 96.556 207.874V207.776C96.556 207.328 96.416 206.987 96.136 206.754C95.856 206.511 95.478 206.39 95.002 206.39C94.5353 206.39 94.1387 206.497 93.812 206.712C93.4853 206.917 93.21 207.207 92.986 207.58L91.936 206.67C92.0853 206.455 92.2533 206.25 92.44 206.054C92.6267 205.858 92.846 205.69 93.098 205.55C93.35 205.401 93.6347 205.284 93.952 205.2C94.2693 205.107 94.6333 205.06 95.044 205.06C95.5013 205.06 95.926 205.116 96.318 205.228C96.71 205.34 97.046 205.508 97.326 205.732C97.606 205.947 97.8253 206.213 97.984 206.53C98.1427 206.838 98.222 207.188 98.222 207.58C98.222 207.888 98.1707 208.168 98.068 208.42C97.9747 208.672 97.8393 208.896 97.662 209.092C97.494 209.279 97.2933 209.433 97.06 209.554C96.836 209.675 96.598 209.764 96.346 209.82V209.89C96.626 209.946 96.8873 210.039 97.13 210.17C97.382 210.291 97.6013 210.455 97.788 210.66C97.9747 210.856 98.1193 211.094 98.222 211.374C98.334 211.645 98.39 211.957 98.39 212.312C98.39 212.741 98.306 213.133 98.138 213.488C97.97 213.833 97.732 214.132 97.424 214.384C97.1253 214.636 96.7613 214.832 96.332 214.972C95.9027 215.103 95.4267 215.168 94.904 215.168C94.4467 215.168 94.0453 215.117 93.7 215.014C93.3547 214.921 93.0467 214.795 92.776 214.636C92.5147 214.468 92.2813 214.281 92.076 214.076C91.88 213.861 91.7073 213.642 91.558 213.418L92.72 212.508C92.8413 212.704 92.9673 212.886 93.098 213.054C93.238 213.213 93.392 213.353 93.56 213.474C93.7373 213.586 93.9333 213.675 94.148 213.74C94.372 213.805 94.624 213.838 94.904 213.838C95.5013 213.838 95.9587 213.698 96.276 213.418C96.5933 213.129 96.752 212.732 96.752 212.228V212.13C96.752 211.626 96.584 211.243 96.248 210.982C95.912 210.721 95.436 210.59 94.82 210.59H93.784V209.246H94.778Z" fill="white"/>
<path d="M43.7275 215V213.684H46.4715V206.376H46.3595L44.0915 208.798L43.1255 207.93L45.6175 205.228H48.0255V213.684H50.4055V215H43.7275ZM58.684 215H52.048V213.488L55.17 210.702C55.6647 210.254 56.0427 209.829 56.304 209.428C56.5747 209.017 56.71 208.588 56.71 208.14V207.958C56.71 207.482 56.5653 207.109 56.276 206.838C55.996 206.567 55.6133 206.432 55.128 206.432C54.8573 206.432 54.6193 206.474 54.414 206.558C54.218 206.633 54.0453 206.74 53.896 206.88C53.7467 207.02 53.6207 207.183 53.518 207.37C53.4247 207.557 53.35 207.757 53.294 207.972L51.908 207.44C52.0107 207.132 52.1507 206.838 52.328 206.558C52.5053 206.269 52.7293 206.012 53 205.788C53.2707 205.564 53.588 205.387 53.952 205.256C54.3253 205.125 54.7593 205.06 55.254 205.06C55.7487 205.06 56.192 205.135 56.584 205.284C56.976 205.424 57.3027 205.625 57.564 205.886C57.8347 206.138 58.04 206.441 58.18 206.796C58.32 207.151 58.39 207.538 58.39 207.958C58.39 208.35 58.3293 208.714 58.208 209.05C58.0867 209.386 57.9187 209.703 57.704 210.002C57.4893 210.301 57.2373 210.585 56.948 210.856C56.668 211.127 56.3693 211.402 56.052 211.682L53.756 213.656H58.684V215Z" fill="white"/>
<path d="M283.727 173V171.684H286.471V164.376H286.359L284.091 166.798L283.125 165.93L285.617 163.228H288.025V171.684H290.405V173H283.727ZM292.342 173V171.684H295.086V164.376H294.974L292.706 166.798L291.74 165.93L294.232 163.228H296.64V171.684H299.02V173H292.342Z" fill="white"/>
<path d="M243.727 173V171.684H246.471V164.376H246.359L244.091 166.798L243.125 165.93L245.617 163.228H248.025V171.684H250.405V173H243.727ZM255.31 173.168C254.703 173.168 254.176 173.056 253.728 172.832C253.28 172.599 252.911 172.267 252.622 171.838C252.333 171.409 252.118 170.881 251.978 170.256C251.838 169.631 251.768 168.917 251.768 168.114C251.768 167.321 251.838 166.611 251.978 165.986C252.118 165.351 252.333 164.819 252.622 164.39C252.911 163.961 253.28 163.634 253.728 163.41C254.176 163.177 254.703 163.06 255.31 163.06C256.523 163.06 257.415 163.503 257.984 164.39C258.563 165.277 258.852 166.518 258.852 168.114C258.852 169.71 258.563 170.951 257.984 171.838C257.415 172.725 256.523 173.168 255.31 173.168ZM255.31 171.824C255.646 171.824 255.931 171.759 256.164 171.628C256.407 171.488 256.603 171.292 256.752 171.04C256.901 170.788 257.009 170.489 257.074 170.144C257.139 169.789 257.172 169.397 257.172 168.968V167.26C257.172 166.831 257.139 166.443 257.074 166.098C257.009 165.743 256.901 165.44 256.752 165.188C256.603 164.936 256.407 164.745 256.164 164.614C255.931 164.474 255.646 164.404 255.31 164.404C254.974 164.404 254.685 164.474 254.442 164.614C254.209 164.745 254.017 164.936 253.868 165.188C253.719 165.44 253.611 165.743 253.546 166.098C253.481 166.443 253.448 166.831 253.448 167.26V168.968C253.448 169.397 253.481 169.789 253.546 170.144C253.611 170.489 253.719 170.788 253.868 171.04C254.017 171.292 254.209 171.488 254.442 171.628C254.685 171.759 254.974 171.824 255.31 171.824Z" fill="white"/>
<path d="M214.419 166.868C214.419 167.577 214.311 168.245 214.097 168.87C213.882 169.495 213.607 170.069 213.271 170.592C212.935 171.115 212.557 171.581 212.137 171.992C211.726 172.403 211.32 172.739 210.919 173H208.819C209.369 172.599 209.864 172.211 210.303 171.838C210.741 171.465 211.124 171.082 211.451 170.69C211.777 170.298 212.048 169.883 212.263 169.444C212.487 169.005 212.659 168.525 212.781 168.002L212.683 167.974C212.58 168.17 212.459 168.357 212.319 168.534C212.188 168.702 212.029 168.851 211.843 168.982C211.665 169.113 211.46 169.215 211.227 169.29C210.993 169.365 210.723 169.402 210.415 169.402C210.004 169.402 209.621 169.332 209.267 169.192C208.921 169.052 208.618 168.851 208.357 168.59C208.105 168.319 207.904 168.002 207.755 167.638C207.615 167.265 207.545 166.845 207.545 166.378C207.545 165.893 207.624 165.445 207.783 165.034C207.951 164.623 208.184 164.273 208.483 163.984C208.781 163.695 209.141 163.471 209.561 163.312C209.981 163.144 210.452 163.06 210.975 163.06C211.516 163.06 211.997 163.149 212.417 163.326C212.846 163.503 213.205 163.76 213.495 164.096C213.793 164.423 214.022 164.819 214.181 165.286C214.339 165.753 214.419 166.28 214.419 166.868ZM210.975 168.128C211.544 168.128 211.987 167.979 212.305 167.68C212.622 167.372 212.781 166.924 212.781 166.336V166.14C212.781 165.552 212.622 165.109 212.305 164.81C211.987 164.502 211.544 164.348 210.975 164.348C210.405 164.348 209.962 164.502 209.645 164.81C209.327 165.109 209.169 165.552 209.169 166.14V166.336C209.169 166.924 209.327 167.372 209.645 167.68C209.962 167.979 210.405 168.128 210.975 168.128Z" fill="white"/>
<path d="M171.003 173.168C170.433 173.168 169.929 173.098 169.491 172.958C169.061 172.809 168.697 172.608 168.399 172.356C168.109 172.104 167.885 171.805 167.727 171.46C167.577 171.115 167.503 170.741 167.503 170.34C167.503 169.687 167.68 169.164 168.035 168.772C168.399 168.371 168.875 168.091 169.463 167.932V167.82C168.959 167.643 168.553 167.363 168.245 166.98C167.946 166.597 167.797 166.126 167.797 165.566C167.797 165.193 167.867 164.852 168.007 164.544C168.156 164.236 168.366 163.975 168.637 163.76C168.907 163.536 169.243 163.363 169.645 163.242C170.046 163.121 170.499 163.06 171.003 163.06C171.507 163.06 171.959 163.121 172.361 163.242C172.762 163.363 173.098 163.536 173.369 163.76C173.639 163.975 173.845 164.236 173.985 164.544C174.134 164.852 174.209 165.193 174.209 165.566C174.209 166.126 174.055 166.597 173.747 166.98C173.448 167.363 173.047 167.643 172.543 167.82V167.932C173.131 168.091 173.602 168.371 173.957 168.772C174.321 169.164 174.503 169.687 174.503 170.34C174.503 170.741 174.423 171.115 174.265 171.46C174.115 171.805 173.891 172.104 173.593 172.356C173.303 172.608 172.939 172.809 172.501 172.958C172.071 173.098 171.572 173.168 171.003 173.168ZM171.003 171.894C171.591 171.894 172.043 171.759 172.361 171.488C172.687 171.217 172.851 170.839 172.851 170.354V170.074C172.851 169.589 172.687 169.211 172.361 168.94C172.043 168.669 171.591 168.534 171.003 168.534C170.415 168.534 169.957 168.669 169.631 168.94C169.313 169.211 169.155 169.589 169.155 170.074V170.354C169.155 170.839 169.313 171.217 169.631 171.488C169.957 171.759 170.415 171.894 171.003 171.894ZM171.003 167.316C171.544 167.316 171.955 167.199 172.235 166.966C172.524 166.733 172.669 166.392 172.669 165.944V165.706C172.669 165.258 172.524 164.917 172.235 164.684C171.955 164.451 171.544 164.334 171.003 164.334C170.461 164.334 170.046 164.451 169.757 164.684C169.477 164.917 169.337 165.258 169.337 165.706V165.944C169.337 166.392 169.477 166.733 169.757 166.966C170.046 167.199 170.461 167.316 171.003 167.316Z" fill="white"/>
<path d="M129.197 173L132.739 164.53H129.043V166.336H127.685V163.228H134.307V164.6L130.863 173H129.197Z" fill="white"/>
<path d="M91.0307 173.168C90.4894 173.168 90.0041 173.079 89.5747 172.902C89.1547 172.725 88.7954 172.473 88.4967 172.146C88.2074 171.81 87.9834 171.409 87.8247 170.942C87.6661 170.475 87.5867 169.948 87.5867 169.36C87.5867 168.651 87.6941 167.983 87.9087 167.358C88.1234 166.733 88.3987 166.159 88.7347 165.636C89.0707 165.113 89.4441 164.651 89.8547 164.25C90.2747 163.839 90.6854 163.499 91.0867 163.228H93.1867C92.6361 163.629 92.1414 164.017 91.7027 164.39C91.2641 164.763 90.8814 165.146 90.5547 165.538C90.2281 165.93 89.9527 166.345 89.7287 166.784C89.5141 167.223 89.3461 167.703 89.2247 168.226L89.3227 168.254C89.4254 168.058 89.5421 167.876 89.6727 167.708C89.8127 167.531 89.9714 167.377 90.1487 167.246C90.3354 167.115 90.5454 167.013 90.7787 166.938C91.0121 166.863 91.2827 166.826 91.5907 166.826C92.0014 166.826 92.3794 166.896 92.7247 167.036C93.0794 167.176 93.3827 167.381 93.6347 167.652C93.8961 167.913 94.0967 168.231 94.2367 168.604C94.3861 168.977 94.4607 169.393 94.4607 169.85C94.4607 170.345 94.3767 170.797 94.2087 171.208C94.0501 171.609 93.8214 171.955 93.5227 172.244C93.2241 172.533 92.8601 172.762 92.4307 172.93C92.0107 173.089 91.5441 173.168 91.0307 173.168ZM91.0307 171.88C91.6001 171.88 92.0434 171.731 92.3607 171.432C92.6781 171.124 92.8367 170.676 92.8367 170.088V169.892C92.8367 169.304 92.6781 168.861 92.3607 168.562C92.0434 168.254 91.6001 168.1 91.0307 168.1C90.4614 168.1 90.0181 168.254 89.7007 168.562C89.3834 168.861 89.2247 169.304 89.2247 169.892V170.088C89.2247 170.676 89.3834 171.124 89.7007 171.432C90.0181 171.731 90.4614 171.88 91.0307 171.88Z" fill="white"/>
<path d="M53.9147 164.6H49.5747L49.3227 168.058H49.4207C49.5327 167.862 49.6494 167.689 49.7707 167.54C49.8921 167.381 50.0321 167.246 50.1907 167.134C50.3494 167.022 50.5314 166.938 50.7367 166.882C50.9421 166.817 51.1847 166.784 51.4647 166.784C51.8847 166.784 52.2721 166.854 52.6267 166.994C52.9907 167.134 53.3034 167.335 53.5647 167.596C53.8354 167.857 54.0454 168.179 54.1947 168.562C54.3441 168.935 54.4187 169.36 54.4187 169.836C54.4187 170.321 54.3394 170.769 54.1807 171.18C54.0314 171.591 53.8074 171.945 53.5087 172.244C53.2101 172.533 52.8414 172.762 52.4027 172.93C51.9734 173.089 51.4834 173.168 50.9327 173.168C50.4941 173.168 50.1067 173.117 49.7707 173.014C49.4347 172.921 49.1361 172.795 48.8747 172.636C48.6227 172.468 48.3987 172.281 48.2027 172.076C48.0161 171.861 47.8481 171.642 47.6987 171.418L48.8467 170.508C48.9681 170.704 49.0941 170.881 49.2247 171.04C49.3554 171.199 49.5047 171.339 49.6727 171.46C49.8407 171.581 50.0274 171.675 50.2327 171.74C50.4474 171.805 50.6901 171.838 50.9607 171.838C51.5394 171.838 51.9827 171.679 52.2907 171.362C52.6081 171.045 52.7667 170.606 52.7667 170.046V169.878C52.7667 169.318 52.6081 168.879 52.2907 168.562C51.9827 168.245 51.5394 168.086 50.9607 168.086C50.5407 168.086 50.2047 168.165 49.9527 168.324C49.7007 168.483 49.4861 168.66 49.3087 168.856L48.0067 168.674L48.3707 163.228H53.9147V164.6Z" fill="white"/>
<path d="M291.829 131V129.096H287.293V127.738L291.255 121.228H293.327V127.85H294.657V129.096H293.327V131H291.829ZM288.637 127.85H291.829V122.67H291.731L288.637 127.85Z" fill="white"/>
<path d="M250.471 125.246C251.077 125.246 251.525 125.12 251.815 124.868C252.104 124.607 252.249 124.275 252.249 123.874V123.776C252.249 123.328 252.109 122.987 251.829 122.754C251.549 122.511 251.171 122.39 250.695 122.39C250.228 122.39 249.831 122.497 249.505 122.712C249.178 122.917 248.903 123.207 248.679 123.58L247.629 122.67C247.778 122.455 247.946 122.25 248.133 122.054C248.319 121.858 248.539 121.69 248.791 121.55C249.043 121.401 249.327 121.284 249.645 121.2C249.962 121.107 250.326 121.06 250.737 121.06C251.194 121.06 251.619 121.116 252.011 121.228C252.403 121.34 252.739 121.508 253.019 121.732C253.299 121.947 253.518 122.213 253.677 122.53C253.835 122.838 253.915 123.188 253.915 123.58C253.915 123.888 253.863 124.168 253.761 124.42C253.667 124.672 253.532 124.896 253.355 125.092C253.187 125.279 252.986 125.433 252.753 125.554C252.529 125.675 252.291 125.764 252.039 125.82V125.89C252.319 125.946 252.58 126.039 252.823 126.17C253.075 126.291 253.294 126.455 253.481 126.66C253.667 126.856 253.812 127.094 253.915 127.374C254.027 127.645 254.083 127.957 254.083 128.312C254.083 128.741 253.999 129.133 253.831 129.488C253.663 129.833 253.425 130.132 253.117 130.384C252.818 130.636 252.454 130.832 252.025 130.972C251.595 131.103 251.119 131.168 250.597 131.168C250.139 131.168 249.738 131.117 249.393 131.014C249.047 130.921 248.739 130.795 248.469 130.636C248.207 130.468 247.974 130.281 247.769 130.076C247.573 129.861 247.4 129.642 247.251 129.418L248.413 128.508C248.534 128.704 248.66 128.886 248.791 129.054C248.931 129.213 249.085 129.353 249.253 129.474C249.43 129.586 249.626 129.675 249.841 129.74C250.065 129.805 250.317 129.838 250.597 129.838C251.194 129.838 251.651 129.698 251.969 129.418C252.286 129.129 252.445 128.732 252.445 128.228V128.13C252.445 127.626 252.277 127.243 251.941 126.982C251.605 126.721 251.129 126.59 250.513 126.59H249.477V125.246H250.471Z" fill="white"/>
<circle cx="211" cy="126" r="15" fill="#1F4921" stroke="#2B662E" stroke-width="2"/>
<path d="M214.377 131H207.741V129.488L210.863 126.702C211.357 126.254 211.735 125.829 211.997 125.428C212.267 125.017 212.403 124.588 212.403 124.14V123.958C212.403 123.482 212.258 123.109 211.969 122.838C211.689 122.567 211.306 122.432 210.821 122.432C210.55 122.432 210.312 122.474 210.107 122.558C209.911 122.633 209.738 122.74 209.589 122.88C209.439 123.02 209.313 123.183 209.211 123.37C209.117 123.557 209.043 123.757 208.987 123.972L207.601 123.44C207.703 123.132 207.843 122.838 208.021 122.558C208.198 122.269 208.422 122.012 208.693 121.788C208.963 121.564 209.281 121.387 209.645 121.256C210.018 121.125 210.452 121.06 210.947 121.06C211.441 121.06 211.885 121.135 212.277 121.284C212.669 121.424 212.995 121.625 213.257 121.886C213.527 122.138 213.733 122.441 213.873 122.796C214.013 123.151 214.083 123.538 214.083 123.958C214.083 124.35 214.022 124.714 213.901 125.05C213.779 125.386 213.611 125.703 213.397 126.002C213.182 126.301 212.93 126.585 212.641 126.856C212.361 127.127 212.062 127.402 211.745 127.682L209.449 129.656H214.377V131Z" fill="white"/>
<path d="M168.035 131V129.684H170.779V122.376H170.667L168.399 124.798L167.433 123.93L169.925 121.228H172.333V129.684H174.713V131H168.035Z" fill="#7A7585"/>
<path d="M126.163 125.246C126.77 125.246 127.218 125.12 127.507 124.868C127.797 124.607 127.941 124.275 127.941 123.874V123.776C127.941 123.328 127.801 122.987 127.521 122.754C127.241 122.511 126.863 122.39 126.387 122.39C125.921 122.39 125.524 122.497 125.197 122.712C124.871 122.917 124.595 123.207 124.371 123.58L123.321 122.67C123.471 122.455 123.639 122.25 123.825 122.054C124.012 121.858 124.231 121.69 124.483 121.55C124.735 121.401 125.02 121.284 125.337 121.2C125.655 121.107 126.019 121.06 126.429 121.06C126.887 121.06 127.311 121.116 127.703 121.228C128.095 121.34 128.431 121.508 128.711 121.732C128.991 121.947 129.211 122.213 129.369 122.53C129.528 122.838 129.607 123.188 129.607 123.58C129.607 123.888 129.556 124.168 129.453 124.42C129.36 124.672 129.225 124.896 129.047 125.092C128.879 125.279 128.679 125.433 128.445 125.554C128.221 125.675 127.983 125.764 127.731 125.82V125.89C128.011 125.946 128.273 126.039 128.515 126.17C128.767 126.291 128.987 126.455 129.173 126.66C129.36 126.856 129.505 127.094 129.607 127.374C129.719 127.645 129.775 127.957 129.775 128.312C129.775 128.741 129.691 129.133 129.523 129.488C129.355 129.833 129.117 130.132 128.809 130.384C128.511 130.636 128.147 130.832 127.717 130.972C127.288 131.103 126.812 131.168 126.289 131.168C125.832 131.168 125.431 131.117 125.085 131.014C124.74 130.921 124.432 130.795 124.161 130.636C123.9 130.468 123.667 130.281 123.461 130.076C123.265 129.861 123.093 129.642 122.943 129.418L124.105 128.508C124.227 128.704 124.353 128.886 124.483 129.054C124.623 129.213 124.777 129.353 124.945 129.474C125.123 129.586 125.319 129.675 125.533 129.74C125.757 129.805 126.009 129.838 126.289 129.838C126.887 129.838 127.344 129.698 127.661 129.418C127.979 129.129 128.137 128.732 128.137 128.228V128.13C128.137 127.626 127.969 127.243 127.633 126.982C127.297 126.721 126.821 126.59 126.205 126.59H125.169V125.246H126.163ZM135.31 131.168C134.703 131.168 134.176 131.056 133.728 130.832C133.28 130.599 132.911 130.267 132.622 129.838C132.333 129.409 132.118 128.881 131.978 128.256C131.838 127.631 131.768 126.917 131.768 126.114C131.768 125.321 131.838 124.611 131.978 123.986C132.118 123.351 132.333 122.819 132.622 122.39C132.911 121.961 133.28 121.634 133.728 121.41C134.176 121.177 134.703 121.06 135.31 121.06C136.523 121.06 137.415 121.503 137.984 122.39C138.563 123.277 138.852 124.518 138.852 126.114C138.852 127.71 138.563 128.951 137.984 129.838C137.415 130.725 136.523 131.168 135.31 131.168ZM135.31 129.824C135.646 129.824 135.931 129.759 136.164 129.628C136.407 129.488 136.603 129.292 136.752 129.04C136.901 128.788 137.009 128.489 137.074 128.144C137.139 127.789 137.172 127.397 137.172 126.968V125.26C137.172 124.831 137.139 124.443 137.074 124.098C137.009 123.743 136.901 123.44 136.752 123.188C136.603 122.936 136.407 122.745 136.164 122.614C135.931 122.474 135.646 122.404 135.31 122.404C134.974 122.404 134.685 122.474 134.442 122.614C134.209 122.745 134.017 122.936 133.868 123.188C133.719 123.44 133.611 123.743 133.546 124.098C133.481 124.443 133.448 124.831 133.448 125.26V126.968C133.448 127.397 133.481 127.789 133.546 128.144C133.611 128.489 133.719 128.788 133.868 129.04C134.017 129.292 134.209 129.488 134.442 129.628C134.685 129.759 134.974 129.824 135.31 129.824Z" fill="#3C3844"/>
<path d="M90.0695 131H83.4335V129.488L86.5555 126.702C87.0501 126.254 87.4281 125.829 87.6895 125.428C87.9601 125.017 88.0955 124.588 88.0955 124.14V123.958C88.0955 123.482 87.9508 123.109 87.6615 122.838C87.3815 122.567 86.9988 122.432 86.5135 122.432C86.2428 122.432 86.0048 122.474 85.7995 122.558C85.6035 122.633 85.4308 122.74 85.2815 122.88C85.1321 123.02 85.0061 123.183 84.9035 123.37C84.8101 123.557 84.7355 123.757 84.6795 123.972L83.2935 123.44C83.3961 123.132 83.5361 122.838 83.7135 122.558C83.8908 122.269 84.1148 122.012 84.3855 121.788C84.6561 121.564 84.9735 121.387 85.3375 121.256C85.7108 121.125 86.1448 121.06 86.6395 121.06C87.1341 121.06 87.5775 121.135 87.9695 121.284C88.3615 121.424 88.6881 121.625 88.9495 121.886C89.2201 122.138 89.4255 122.441 89.5655 122.796C89.7055 123.151 89.7755 123.538 89.7755 123.958C89.7755 124.35 89.7148 124.714 89.5935 125.05C89.4721 125.386 89.3041 125.703 89.0895 126.002C88.8748 126.301 88.6228 126.585 88.3335 126.856C88.0535 127.127 87.7548 127.402 87.4375 127.682L85.1415 129.656H90.0695V131ZM98.726 124.868C98.726 125.577 98.6187 126.245 98.404 126.87C98.1893 127.495 97.914 128.069 97.578 128.592C97.242 129.115 96.864 129.581 96.444 129.992C96.0333 130.403 95.6273 130.739 95.226 131H93.126C93.6767 130.599 94.1713 130.211 94.61 129.838C95.0487 129.465 95.4313 129.082 95.758 128.69C96.0847 128.298 96.3553 127.883 96.57 127.444C96.794 127.005 96.9667 126.525 97.088 126.002L96.99 125.974C96.8873 126.17 96.766 126.357 96.626 126.534C96.4953 126.702 96.3367 126.851 96.15 126.982C95.9727 127.113 95.7673 127.215 95.534 127.29C95.3007 127.365 95.03 127.402 94.722 127.402C94.3113 127.402 93.9287 127.332 93.574 127.192C93.2287 127.052 92.9253 126.851 92.664 126.59C92.412 126.319 92.2113 126.002 92.062 125.638C91.922 125.265 91.852 124.845 91.852 124.378C91.852 123.893 91.9313 123.445 92.09 123.034C92.258 122.623 92.4913 122.273 92.79 121.984C93.0887 121.695 93.448 121.471 93.868 121.312C94.288 121.144 94.7593 121.06 95.282 121.06C95.8233 121.06 96.304 121.149 96.724 121.326C97.1533 121.503 97.5127 121.76 97.802 122.096C98.1007 122.423 98.3293 122.819 98.488 123.286C98.6467 123.753 98.726 124.28 98.726 124.868ZM95.282 126.128C95.8513 126.128 96.2947 125.979 96.612 125.68C96.9293 125.372 97.088 124.924 97.088 124.336V124.14C97.088 123.552 96.9293 123.109 96.612 122.81C96.2947 122.502 95.8513 122.348 95.282 122.348C94.7127 122.348 94.2693 122.502 93.952 122.81C93.6347 123.109 93.476 123.552 93.476 124.14V124.336C93.476 124.924 93.6347 125.372 93.952 125.68C94.2693 125.979 94.7127 126.128 95.282 126.128Z" fill="#3C3844"/>
<path d="M50.0695 131H43.4335V129.488L46.5555 126.702C47.0501 126.254 47.4281 125.829 47.6895 125.428C47.9601 125.017 48.0955 124.588 48.0955 124.14V123.958C48.0955 123.482 47.9508 123.109 47.6615 122.838C47.3815 122.567 46.9988 122.432 46.5135 122.432C46.2428 122.432 46.0048 122.474 45.7995 122.558C45.6035 122.633 45.4308 122.74 45.2815 122.88C45.1321 123.02 45.0061 123.183 44.9035 123.37C44.8101 123.557 44.7355 123.757 44.6795 123.972L43.2935 123.44C43.3961 123.132 43.5361 122.838 43.7135 122.558C43.8908 122.269 44.1148 122.012 44.3855 121.788C44.6561 121.564 44.9735 121.387 45.3375 121.256C45.7108 121.125 46.1448 121.06 46.6395 121.06C47.1341 121.06 47.5775 121.135 47.9695 121.284C48.3615 121.424 48.6881 121.625 48.9495 121.886C49.2201 122.138 49.4255 122.441 49.5655 122.796C49.7055 123.151 49.7755 123.538 49.7755 123.958C49.7755 124.35 49.7148 124.714 49.5935 125.05C49.4721 125.386 49.3041 125.703 49.0895 126.002C48.8748 126.301 48.6228 126.585 48.3335 126.856C48.0535 127.127 47.7548 127.402 47.4375 127.682L45.1415 129.656H50.0695V131ZM55.31 131.168C54.7407 131.168 54.2367 131.098 53.798 130.958C53.3687 130.809 53.0047 130.608 52.706 130.356C52.4167 130.104 52.1927 129.805 52.034 129.46C51.8847 129.115 51.81 128.741 51.81 128.34C51.81 127.687 51.9873 127.164 52.342 126.772C52.706 126.371 53.182 126.091 53.77 125.932V125.82C53.266 125.643 52.86 125.363 52.552 124.98C52.2533 124.597 52.104 124.126 52.104 123.566C52.104 123.193 52.174 122.852 52.314 122.544C52.4633 122.236 52.6733 121.975 52.944 121.76C53.2147 121.536 53.5507 121.363 53.952 121.242C54.3533 121.121 54.806 121.06 55.31 121.06C55.814 121.06 56.2667 121.121 56.668 121.242C57.0693 121.363 57.4053 121.536 57.676 121.76C57.9467 121.975 58.152 122.236 58.292 122.544C58.4413 122.852 58.516 123.193 58.516 123.566C58.516 124.126 58.362 124.597 58.054 124.98C57.7553 125.363 57.354 125.643 56.85 125.82V125.932C57.438 126.091 57.9093 126.371 58.264 126.772C58.628 127.164 58.81 127.687 58.81 128.34C58.81 128.741 58.7307 129.115 58.572 129.46C58.4227 129.805 58.1987 130.104 57.9 130.356C57.6107 130.608 57.2467 130.809 56.808 130.958C56.3787 131.098 55.8793 131.168 55.31 131.168ZM55.31 129.894C55.898 129.894 56.3507 129.759 56.668 129.488C56.9947 129.217 57.158 128.839 57.158 128.354V128.074C57.158 127.589 56.9947 127.211 56.668 126.94C56.3507 126.669 55.898 126.534 55.31 126.534C54.722 126.534 54.2647 126.669 53.938 126.94C53.6207 127.211 53.462 127.589 53.462 128.074V128.354C53.462 128.839 53.6207 129.217 53.938 129.488C54.2647 129.759 54.722 129.894 55.31 129.894ZM55.31 125.316C55.8513 125.316 56.262 125.199 56.542 124.966C56.8313 124.733 56.976 124.392 56.976 123.944V123.706C56.976 123.258 56.8313 122.917 56.542 122.684C56.262 122.451 55.8513 122.334 55.31 122.334C54.7687 122.334 54.3533 122.451 54.064 122.684C53.784 122.917 53.644 123.258 53.644 123.706V123.944C53.644 124.392 53.784 124.733 54.064 124.966C54.3533 125.199 54.7687 125.316 55.31 125.316Z" fill="#3C3844"/>
<path d="M283.394 90.12C282.781 90.12 282.261 90.0167 281.834 89.81C281.408 89.5967 281.044 89.3233 280.744 88.99L281.744 87.98C282.218 88.5133 282.801 88.78 283.494 88.78C283.868 88.78 284.144 88.7033 284.324 88.55C284.504 88.3967 284.594 88.1933 284.594 87.94C284.594 87.7467 284.541 87.5867 284.434 87.46C284.328 87.3267 284.111 87.2367 283.784 87.19L283.094 87.1C282.354 87.0067 281.811 86.7833 281.464 86.43C281.124 86.0767 280.954 85.6067 280.954 85.02C280.954 84.7067 281.014 84.42 281.134 84.16C281.254 83.9 281.424 83.6767 281.644 83.49C281.871 83.3033 282.144 83.16 282.464 83.06C282.791 82.9533 283.161 82.9 283.574 82.9C284.101 82.9 284.564 82.9833 284.964 83.15C285.364 83.3167 285.708 83.56 285.994 83.88L284.984 84.9C284.818 84.7067 284.614 84.55 284.374 84.43C284.141 84.3033 283.844 84.24 283.484 84.24C283.144 84.24 282.891 84.3 282.724 84.42C282.558 84.54 282.474 84.7067 282.474 84.92C282.474 85.16 282.538 85.3333 282.664 85.44C282.798 85.5467 283.011 85.6233 283.304 85.67L283.994 85.78C284.714 85.8933 285.248 86.1167 285.594 86.45C285.941 86.7767 286.114 87.2433 286.114 87.85C286.114 88.1833 286.054 88.49 285.934 88.77C285.814 89.05 285.638 89.29 285.404 89.49C285.178 89.69 284.894 89.8467 284.554 89.96C284.214 90.0667 283.828 90.12 283.394 90.12ZM293.174 90L292.674 88.34H290.344L289.844 90H288.304L290.604 83.02H292.484L294.754 90H293.174ZM291.524 84.4H291.474L290.704 87.05H292.304L291.524 84.4ZM299.476 84.37V90H297.956V84.37H296.066V83.02H301.366V84.37H299.476Z" fill="black"/>
<path d="M241.818 90V83.02H246.448V84.37H243.338V85.8H245.988V87.14H243.338V90H241.818ZM250.687 90H249.167V83.02H252.477C252.797 83.02 253.087 83.0733 253.347 83.18C253.607 83.2867 253.827 83.44 254.007 83.64C254.194 83.8333 254.337 84.0667 254.437 84.34C254.537 84.6133 254.587 84.9167 254.587 85.25C254.587 85.7233 254.481 86.1367 254.267 86.49C254.061 86.8433 253.744 87.1 253.317 87.26L254.687 90H252.997L251.777 87.44H250.687V90ZM252.287 86.16C252.514 86.16 252.691 86.1033 252.817 85.99C252.951 85.87 253.017 85.6967 253.017 85.47V85.03C253.017 84.8033 252.951 84.6333 252.817 84.52C252.691 84.4 252.514 84.34 252.287 84.34H250.687V86.16H252.287ZM257.136 90V88.79H258.036V84.23H257.136V83.02H260.456V84.23H259.556V88.79H260.456V90H257.136Z" fill="black"/>
<path d="M203.17 84.37V90H201.65V84.37H199.76V83.02H205.06V84.37H203.17ZM211.78 87.14H209.12V90H207.6V83.02H209.12V85.8H211.78V83.02H213.3V90H211.78V87.14ZM217.776 83.02V87.3C217.776 87.7933 217.873 88.1633 218.066 88.41C218.26 88.65 218.583 88.77 219.036 88.77C219.49 88.77 219.813 88.65 220.006 88.41C220.2 88.1633 220.296 87.7933 220.296 87.3V83.02H221.776V87.14C221.776 87.6533 221.726 88.1 221.626 88.48C221.533 88.8533 221.376 89.1633 221.156 89.41C220.936 89.65 220.653 89.83 220.306 89.95C219.96 90.0633 219.536 90.12 219.036 90.12C218.536 90.12 218.113 90.0633 217.766 89.95C217.42 89.83 217.136 89.65 216.916 89.41C216.696 89.1633 216.536 88.8533 216.436 88.48C216.343 88.1 216.296 87.6533 216.296 87.14V83.02H217.776Z" fill="black"/>
<path d="M159.983 90L158.403 83.02H159.903L160.563 86.37L160.933 88.31H160.963L161.403 86.37L162.173 83.02H163.833L164.613 86.37L165.043 88.31H165.073L165.443 86.37L166.113 83.02H167.553L165.933 90H164.203L163.323 86.22L162.983 84.69H162.953L162.603 86.22L161.723 90H159.983ZM170.11 90V83.02H174.86V84.37H171.63V85.8H174.4V87.14H171.63V88.65H174.86V90H170.11ZM177.684 83.02H180.314C180.774 83.02 181.194 83.0933 181.574 83.24C181.954 83.3867 182.277 83.6067 182.544 83.9C182.811 84.1867 183.017 84.55 183.164 84.99C183.311 85.4233 183.384 85.93 183.384 86.51C183.384 87.09 183.311 87.6 183.164 88.04C183.017 88.4733 182.811 88.8367 182.544 89.13C182.277 89.4167 181.954 89.6333 181.574 89.78C181.194 89.9267 180.774 90 180.314 90H177.684V83.02ZM180.314 88.65C180.767 88.65 181.124 88.5233 181.384 88.27C181.644 88.0167 181.774 87.61 181.774 87.05V85.97C181.774 85.41 181.644 85.0033 181.384 84.75C181.124 84.4967 180.767 84.37 180.314 84.37H179.204V88.65H180.314Z" fill="black"/>
<path d="M123.751 84.37V90H122.231V84.37H120.341V83.02H125.641V84.37H123.751ZM129.621 83.02V87.3C129.621 87.7933 129.718 88.1633 129.911 88.41C130.104 88.65 130.428 88.77 130.881 88.77C131.334 88.77 131.658 88.65 131.851 88.41C132.044 88.1633 132.141 87.7933 132.141 87.3V83.02H133.621V87.14C133.621 87.6533 133.571 88.1 133.471 88.48C133.378 88.8533 133.221 89.1633 133.001 89.41C132.781 89.65 132.498 89.83 132.151 89.95C131.804 90.0633 131.381 90.12 130.881 90.12C130.381 90.12 129.958 90.0633 129.611 89.95C129.264 89.83 128.981 89.65 128.761 89.41C128.541 89.1633 128.381 88.8533 128.281 88.48C128.188 88.1 128.141 87.6533 128.141 87.14V83.02H129.621ZM136.624 90V83.02H141.374V84.37H138.144V85.8H140.914V87.14H138.144V88.65H141.374V90H136.624Z" fill="black"/>
<path d="M84.2058 85.42H84.1758L83.6658 86.44L82.3058 88.91L80.9758 86.45L80.4458 85.35H80.4158V90H78.9858V83.02H80.5958L82.3058 86.29H82.3258L84.0158 83.02H85.6358V90H84.2058V85.42ZM91.4792 90.12C91.0192 90.12 90.5992 90.0433 90.2192 89.89C89.8392 89.7367 89.5158 89.51 89.2492 89.21C88.9825 88.9033 88.7758 88.5267 88.6292 88.08C88.4825 87.6267 88.4092 87.1033 88.4092 86.51C88.4092 85.9167 88.4825 85.3967 88.6292 84.95C88.7758 84.4967 88.9825 84.12 89.2492 83.82C89.5158 83.5133 89.8392 83.2833 90.2192 83.13C90.5992 82.9767 91.0192 82.9 91.4792 82.9C91.9392 82.9 92.3592 82.9767 92.7392 83.13C93.1192 83.2833 93.4425 83.5133 93.7092 83.82C93.9758 84.12 94.1825 84.4967 94.3292 84.95C94.4758 85.3967 94.5492 85.9167 94.5492 86.51C94.5492 87.1033 94.4758 87.6267 94.3292 88.08C94.1825 88.5267 93.9758 88.9033 93.7092 89.21C93.4425 89.51 93.1192 89.7367 92.7392 89.89C92.3592 90.0433 91.9392 90.12 91.4792 90.12ZM91.4792 88.77C91.9392 88.77 92.2958 88.62 92.5492 88.32C92.8092 88.02 92.9392 87.59 92.9392 87.03V85.99C92.9392 85.43 92.8092 85 92.5492 84.7C92.2958 84.4 91.9392 84.25 91.4792 84.25C91.0192 84.25 90.6592 84.4 90.3992 84.7C90.1458 85 90.0192 85.43 90.0192 85.99V87.03C90.0192 87.59 90.1458 88.02 90.3992 88.32C90.6592 88.62 91.0192 88.77 91.4792 88.77ZM99.4479 86.7L98.7779 85.3H98.7479V90H97.3179V83.02H98.9779L100.888 86.32L101.558 87.72H101.588V83.02H103.018V90H101.358L99.4479 86.7Z" fill="black"/>
<path d="M42.32 90.12C41.7067 90.12 41.1867 90.0167 40.76 89.81C40.3334 89.5967 39.97 89.3233 39.67 88.99L40.67 87.98C41.1434 88.5133 41.7267 88.78 42.42 88.78C42.7934 88.78 43.07 88.7033 43.25 88.55C43.43 88.3967 43.52 88.1933 43.52 87.94C43.52 87.7467 43.4667 87.5867 43.36 87.46C43.2534 87.3267 43.0367 87.2367 42.71 87.19L42.02 87.1C41.28 87.0067 40.7367 86.7833 40.39 86.43C40.05 86.0767 39.88 85.6067 39.88 85.02C39.88 84.7067 39.94 84.42 40.06 84.16C40.18 83.9 40.35 83.6767 40.57 83.49C40.7967 83.3033 41.07 83.16 41.39 83.06C41.7167 82.9533 42.0867 82.9 42.5 82.9C43.0267 82.9 43.49 82.9833 43.89 83.15C44.29 83.3167 44.6334 83.56 44.92 83.88L43.91 84.9C43.7434 84.7067 43.54 84.55 43.3 84.43C43.0667 84.3033 42.77 84.24 42.41 84.24C42.07 84.24 41.8167 84.3 41.65 84.42C41.4834 84.54 41.4 84.7067 41.4 84.92C41.4 85.16 41.4634 85.3333 41.59 85.44C41.7234 85.5467 41.9367 85.6233 42.23 85.67L42.92 85.78C43.64 85.8933 44.1734 86.1167 44.52 86.45C44.8667 86.7767 45.04 87.2433 45.04 87.85C45.04 88.1833 44.98 88.49 44.86 88.77C44.74 89.05 44.5634 89.29 44.33 89.49C44.1034 89.69 43.82 89.8467 43.48 89.96C43.14 90.0667 42.7534 90.12 42.32 90.12ZM49.2403 83.02V87.3C49.2403 87.7933 49.3369 88.1633 49.5303 88.41C49.7236 88.65 50.0469 88.77 50.5003 88.77C50.9536 88.77 51.2769 88.65 51.4703 88.41C51.6636 88.1633 51.7603 87.7933 51.7603 87.3V83.02H53.2403V87.14C53.2403 87.6533 53.1903 88.1 53.0903 88.48C52.9969 88.8533 52.8403 89.1633 52.6203 89.41C52.4003 89.65 52.1169 89.83 51.7703 89.95C51.4236 90.0633 51.0003 90.12 50.5003 90.12C50.0003 90.12 49.5769 90.0633 49.2303 89.95C48.8836 89.83 48.6003 89.65 48.3803 89.41C48.1603 89.1633 48.0003 88.8533 47.9003 88.48C47.8069 88.1 47.7603 87.6533 47.7603 87.14V83.02H49.2403ZM58.3736 86.7L57.7036 85.3H57.6736V90H56.2436V83.02H57.9036L59.8136 86.32L60.4836 87.72H60.5136V83.02H61.9436V90H60.2836L58.3736 86.7Z" fill="black"/>
<path d="M144.915 30.592H144.835L143.891 32.464L141.219 37.328L138.547 32.464L137.603 30.592H137.523V40H136.211V28.832H138.003L141.203 34.848H141.283L144.499 28.832H146.227V40H144.915V30.592ZM155.187 40C154.707 40 154.361 39.872 154.147 39.616C153.945 39.36 153.817 39.04 153.763 38.656H153.683C153.502 39.168 153.203 39.552 152.787 39.808C152.371 40.064 151.875 40.192 151.299 40.192C150.425 40.192 149.742 39.968 149.251 39.52C148.771 39.072 148.531 38.464 148.531 37.696C148.531 36.9173 148.814 36.32 149.379 35.904C149.955 35.488 150.846 35.28 152.051 35.28H153.683V34.464C153.683 33.8773 153.523 33.4293 153.203 33.12C152.883 32.8107 152.393 32.656 151.731 32.656C151.23 32.656 150.809 32.768 150.467 32.992C150.137 33.216 149.859 33.5147 149.635 33.888L148.867 33.168C149.091 32.72 149.449 32.3413 149.939 32.032C150.43 31.712 151.049 31.552 151.795 31.552C152.798 31.552 153.577 31.7973 154.131 32.288C154.686 32.7787 154.963 33.4613 154.963 34.336V38.88H155.907V40H155.187ZM151.507 39.104C151.827 39.104 152.121 39.0667 152.387 38.992C152.654 38.9173 152.883 38.8107 153.075 38.672C153.267 38.5333 153.417 38.3733 153.523 38.192C153.63 38.0107 153.683 37.8133 153.683 37.6V36.24H151.987C151.251 36.24 150.713 36.3467 150.371 36.56C150.041 36.7733 149.875 37.0827 149.875 37.488V37.824C149.875 38.2293 150.019 38.544 150.307 38.768C150.606 38.992 151.006 39.104 151.507 39.104ZM162.864 31.744H164.128L160.432 41.92C160.336 42.1653 160.24 42.368 160.144 42.528C160.048 42.6987 159.931 42.832 159.792 42.928C159.654 43.024 159.478 43.0933 159.264 43.136C159.062 43.1787 158.811 43.2 158.512 43.2H157.856V42.08H159.152L159.776 40.32L156.688 31.744H157.968L159.952 37.36L160.336 38.704H160.416L160.864 37.36L162.864 31.744ZM176.95 40H169.622V38.624L173.27 35.264C173.793 34.784 174.23 34.2773 174.582 33.744C174.934 33.2 175.11 32.656 175.11 32.112V31.92C175.11 31.3013 174.939 30.8 174.598 30.416C174.257 30.032 173.739 29.84 173.046 29.84C172.705 29.84 172.406 29.888 172.15 29.984C171.894 30.08 171.67 30.2133 171.478 30.384C171.297 30.5547 171.142 30.7573 171.014 30.992C170.897 31.216 170.801 31.4613 170.726 31.728L169.526 31.264C169.633 30.9333 169.777 30.6133 169.958 30.304C170.15 29.984 170.385 29.7013 170.662 29.456C170.95 29.2107 171.291 29.0133 171.686 28.864C172.091 28.7147 172.566 28.64 173.11 28.64C173.654 28.64 174.139 28.72 174.566 28.88C174.993 29.04 175.35 29.264 175.638 29.552C175.926 29.84 176.145 30.1813 176.294 30.576C176.454 30.9707 176.534 31.408 176.534 31.888C176.534 32.3253 176.47 32.7307 176.342 33.104C176.225 33.4773 176.059 33.8347 175.846 34.176C175.633 34.5067 175.371 34.832 175.062 35.152C174.763 35.472 174.438 35.792 174.086 36.112L171.078 38.816H176.95V40ZM182.936 40.192C181.602 40.192 180.626 39.6853 180.008 38.672C179.4 37.6587 179.096 36.24 179.096 34.416C179.096 32.592 179.4 31.1733 180.008 30.16C180.626 29.1467 181.602 28.64 182.936 28.64C184.269 28.64 185.24 29.1467 185.848 30.16C186.466 31.1733 186.776 32.592 186.776 34.416C186.776 36.24 186.466 37.6587 185.848 38.672C185.24 39.6853 184.269 40.192 182.936 40.192ZM182.936 39.024C183.373 39.024 183.746 38.9333 184.056 38.752C184.365 38.5707 184.616 38.3147 184.808 37.984C185 37.6533 185.138 37.264 185.224 36.816C185.32 36.368 185.368 35.872 185.368 35.328V33.504C185.368 32.96 185.32 32.464 185.224 32.016C185.138 31.568 185 31.1787 184.808 30.848C184.616 30.5173 184.365 30.2613 184.056 30.08C183.746 29.8987 183.373 29.808 182.936 29.808C182.498 29.808 182.125 29.8987 181.816 30.08C181.506 30.2613 181.256 30.5173 181.064 30.848C180.872 31.1787 180.728 31.568 180.632 32.016C180.546 32.464 180.504 32.96 180.504 33.504V35.328C180.504 35.872 180.546 36.368 180.632 36.816C180.728 37.264 180.872 37.6533 181.064 37.984C181.256 38.3147 181.506 38.5707 181.816 38.752C182.125 38.9333 182.498 39.024 182.936 39.024ZM189.257 40V38.816H192.377V29.824H192.265L189.449 32.448L188.665 31.6L191.625 28.832H193.721V38.816H196.601V40H189.257ZM206.091 32.928C206.091 33.76 205.968 34.544 205.723 35.28C205.478 36.0053 205.158 36.672 204.763 37.28C204.379 37.8773 203.952 38.4107 203.483 38.88C203.014 39.3387 202.555 39.712 202.107 40H200.379C200.976 39.5627 201.51 39.136 201.979 38.72C202.448 38.304 202.859 37.872 203.211 37.424C203.563 36.9653 203.862 36.48 204.107 35.968C204.352 35.4453 204.55 34.8587 204.699 34.208L204.619 34.176C204.352 34.6347 204.006 35.0187 203.579 35.328C203.163 35.6267 202.614 35.776 201.931 35.776C201.451 35.776 201.008 35.696 200.603 35.536C200.198 35.376 199.851 35.1467 199.563 34.848C199.275 34.5493 199.046 34.192 198.875 33.776C198.715 33.3493 198.635 32.8693 198.635 32.336C198.635 31.792 198.72 31.296 198.891 30.848C199.072 30.3893 199.323 30 199.643 29.68C199.974 29.3493 200.363 29.0933 200.811 28.912C201.27 28.7307 201.782 28.64 202.347 28.64C202.923 28.64 203.44 28.7413 203.899 28.944C204.368 29.136 204.763 29.4187 205.083 29.792C205.414 30.1547 205.664 30.6027 205.835 31.136C206.006 31.6693 206.091 32.2667 206.091 32.928ZM202.363 34.64C203.099 34.64 203.67 34.4373 204.075 34.032C204.491 33.6267 204.699 33.0453 204.699 32.288V32.16C204.699 31.4027 204.491 30.8213 204.075 30.416C203.67 30.0107 203.099 29.808 202.363 29.808C201.627 29.808 201.051 30.0107 200.635 30.416C200.23 30.8213 200.027 31.4027 200.027 32.16V32.288C200.027 33.0453 200.23 33.6267 200.635 34.032C201.051 34.4373 201.627 34.64 202.363 34.64Z" fill="black"/>
</svg>
