<svg width="198" height="211" viewBox="0 0 198 211" fill="none" xmlns="http://www.w3.org/2000/svg">
<path d="M105.188 139.457L129.319 144.402L149.119 35.9353C150.356 28.6822 146.025 21.4291 139.528 20.1103C132.722 18.7916 126.225 23.7369 124.988 30.99L105.188 139.457Z" fill="#FFE1BD"/>
<path d="M139.837 20.1109C138.909 19.7812 138.29 19.7812 137.362 19.7812C142.931 22.0891 146.025 28.3531 144.787 34.9469L124.987 143.414L129.318 144.403L149.118 35.9359C150.665 28.3531 146.334 21.4297 139.837 20.1109Z" fill="#E6B796"/>
<path d="M80.4375 142.755H109.519V23.0781C109.519 14.1766 103.022 6.59375 94.9781 6.59375C87.2438 6.59375 80.4375 13.8469 80.4375 23.0781V142.755Z" fill="#FFE1BD"/>
<path d="M95.2878 6.59375C94.6691 6.59375 93.7409 6.59375 93.1222 6.92344C100.238 8.24219 105.497 14.8359 105.497 23.0781V143.084H109.828V23.0781C109.828 13.8469 103.332 6.59375 95.2878 6.59375Z" fill="#E6B796"/>
<path d="M64.9691 142.426L89.7191 135.503L62.8035 26.376C60.9472 18.7931 53.8316 14.1775 47.0253 15.826C40.2191 17.8041 36.1972 25.3869 38.0535 32.9697L64.9691 142.426Z" fill="#FFE1BD"/>
<path d="M47.0253 15.826L45.1691 16.815C51.3566 16.4853 56.9253 20.7713 58.7816 27.6947L85.6972 136.821L90.0285 135.503L62.8034 26.376C60.9472 18.7931 53.8316 14.1775 47.0253 15.826Z" fill="#E6B796"/>
<path d="M12.3745 44.1794C6.49637 47.1466 4.64012 55.0591 7.73387 61.6529L48.5714 148.361L69.2995 137.151L28.462 50.4435C25.3682 43.8497 18.2526 41.2122 12.3745 44.1794Z" fill="#FFE1BD"/>
<path d="M12.3747 44.1794C11.7559 44.5091 11.1372 44.8388 10.5184 45.4982C15.7778 43.8497 21.6559 46.8169 24.4403 52.7513L65.2778 139.459L69.2997 137.481L28.4622 50.4435C25.3684 43.8497 18.2528 41.2122 12.3747 44.1794Z" fill="#E6B796"/>
<path d="M190.884 96.5992C185.934 86.3788 170.465 87.0382 154.687 105.501C143.55 118.359 141.384 122.644 130.247 122.315V108.798C130.247 108.798 106.425 90.0054 59.0904 98.5773C59.0904 98.5773 32.1748 102.534 32.1748 117.699C32.1748 117.699 27.5342 154.294 37.1248 177.373C51.356 211.66 124.369 220.562 147.262 162.207C151.903 150.668 161.184 142.096 169.537 131.216C179.128 118.029 196.144 107.479 190.884 96.5992Z" fill="#FFE1BD"/>
<path d="M190.885 96.5995C189.957 94.6214 188.719 93.3026 187.172 91.9839C187.482 92.3136 187.791 92.6433 187.791 93.3026C193.05 104.512 176.035 114.732 165.825 127.92C157.472 138.8 148.191 147.371 143.55 158.91C123.75 209.353 66.2066 209.353 42.0753 186.275C64.0409 212.65 125.916 215.287 146.644 162.207C151.285 150.668 160.566 142.096 168.919 131.217C179.128 118.029 196.144 107.479 190.885 96.5995Z" fill="#E6B796"/>
<path d="M133.341 122.315C113.231 114.403 77.3438 128.909 82.2938 167.482C82.2938 131.546 112.922 122.645 129.628 122.645C132.103 122.315 133.341 122.315 133.341 122.315Z" fill="#E6B796"/>
<ellipse cx="19.5" cy="58" rx="14.5" ry="15" fill="#00BA88" fill-opacity="0.5"/>
<ellipse cx="50.5" cy="30" rx="14.5" ry="15" fill="#FC8282" fill-opacity="0.5"/>
<ellipse cx="94.5" cy="20" rx="14.5" ry="15" fill="#FFC700" fill-opacity="0.5"/>
<ellipse cx="136.5" cy="33" rx="14.5" ry="15" fill="#5F2EEA" fill-opacity="0.5"/>
<ellipse cx="178.5" cy="102" rx="14.5" ry="15" fill="#B0D9FF" fill-opacity="0.5"/>
</svg>
