<svg width="67" height="67" viewBox="0 0 67 67" fill="none" xmlns="http://www.w3.org/2000/svg">
<path d="M55.551 17.2734C55.3953 17.8466 55.7394 18.6435 56.0679 19.218C56.1702 19.3893 56.2811 19.5553 56.4003 19.7153C59.2173 23.9875 60.7188 28.9924 60.7186 34.1098C60.7644 48.7988 48.584 60.7188 33.5221 60.7188C20.3865 60.7188 9.42175 51.6188 6.85952 39.5392C6.47563 37.7482 6.28176 35.9218 6.28112 34.0902C6.28112 19.3803 17.9917 7.27316 33.0536 7.27316C35.4484 7.27316 38.6806 7.87512 40.4433 8.36846C42.2059 8.8618 43.966 9.51609 44.4201 9.69144C44.8845 9.86996 45.3777 9.96177 45.8752 9.96232C46.4187 9.96439 46.9569 9.85622 47.4573 9.64434L56.3335 6.4409C56.528 6.35709 56.734 6.30326 56.9446 6.28125C57.1108 6.28175 57.2753 6.31523 57.4284 6.37973C57.5816 6.44424 57.7205 6.5385 57.8369 6.65705C57.9534 6.7756 58.0452 6.91608 58.107 7.07036C58.1688 7.22463 58.1994 7.38964 58.197 7.55582C58.186 7.7017 58.1597 7.84601 58.1184 7.98635L55.551 17.2734Z" stroke="#C1C1C1" stroke-miterlimit="10" stroke-linecap="round"/>
<path d="M24.6554 47H35.3484C37.7624 47 39.5927 46.3313 40.8394 44.994C42.0861 43.6567 42.7094 41.9 42.7094 39.724C42.7094 38.4887 42.4034 37.3667 41.7914 36.358C41.1907 35.3493 40.3011 34.5957 39.1224 34.097C39.8817 33.6437 40.4767 33.0033 40.9074 32.176C41.3494 31.3373 41.5704 30.3627 41.5704 29.252C41.5704 28.1527 41.3097 27.0873 40.7884 26.056C40.2784 25.0247 39.4907 24.1803 38.4254 23.523C37.3714 22.8543 36.0171 22.52 34.3624 22.52H24.6554V47ZM28.8034 32.295V26.345H34.3114C35.2861 26.345 36.0454 26.6283 36.5894 27.195C37.1334 27.7617 37.4054 28.47 37.4054 29.32C37.4054 30.2947 37.1051 31.037 36.5044 31.547C35.9151 32.0457 35.1841 32.295 34.3114 32.295H28.8034ZM28.8034 43.141V36.12H34.9574C36.1021 36.12 36.9917 36.4543 37.6264 37.123C38.2611 37.7917 38.5784 38.619 38.5784 39.605C38.5784 40.693 38.2214 41.5543 37.5074 42.189C36.8047 42.8237 35.9151 43.141 34.8384 43.141H28.8034Z" fill="#757B7E"/>
</svg>
