<svg width="234" height="246" viewBox="0 0 234 246" fill="none" xmlns="http://www.w3.org/2000/svg">
<circle cx="99.9999" cy="102" r="94" stroke="#D5CFCF" stroke-opacity="0.24" stroke-width="10"/>
<path d="M98.1567 196C150.071 196 192.157 153.915 192.157 102C192.157 50.0852 150.071 8 98.1567 8" stroke="white" stroke-width="15" stroke-linejoin="round"/>
<path d="M26.2034 160.159C58.463 200.834 117.588 207.656 158.263 175.396C198.938 143.136 205.76 84.0111 173.501 43.3361" stroke="white" stroke-width="15" stroke-linejoin="round"/>
<path d="M73.424 112H80.048V106.624H83.12V100.528H80.048V91.888H73.424V100.528H65.888L76.784 77.44H69.296L58.4 100.528V106.624H73.424V112ZM100.459 112.72C102.795 112.72 104.875 112.248 106.699 111.304C108.523 110.344 109.955 109.032 110.995 107.368C112.035 105.688 112.555 103.776 112.555 101.632C112.555 100.048 112.243 98.536 111.619 97.096C110.995 95.64 110.107 94.416 108.955 93.424C109.835 92.416 110.491 91.368 110.923 90.28C111.371 89.192 111.595 87.984 111.595 86.656C111.595 84.656 111.115 82.912 110.155 81.424C109.211 79.936 107.899 78.784 106.219 77.968C104.555 77.136 102.635 76.72 100.459 76.72C98.2833 76.72 96.3553 77.136 94.6753 77.968C93.0113 78.784 91.6993 79.936 90.7393 81.424C89.7953 82.912 89.3233 84.656 89.3233 86.656C89.3233 87.984 89.5553 89.2 90.0193 90.304C90.4993 91.408 91.1633 92.448 92.0113 93.424C90.8433 94.464 89.9473 95.704 89.3233 97.144C88.7153 98.568 88.4113 100.064 88.4113 101.632C88.4113 103.776 88.9233 105.688 89.9473 107.368C90.9873 109.032 92.4113 110.344 94.2193 111.304C96.0433 112.248 98.1233 112.72 100.459 112.72ZM100.459 90.448C99.2113 90.448 98.1953 90.144 97.4113 89.536C96.6273 88.912 96.2353 87.952 96.2353 86.656C96.2353 85.36 96.6273 84.4 97.4113 83.776C98.1953 83.136 99.2113 82.816 100.459 82.816C101.707 82.816 102.723 83.136 103.507 83.776C104.291 84.4 104.683 85.36 104.683 86.656C104.683 87.952 104.291 88.912 103.507 89.536C102.723 90.144 101.707 90.448 100.459 90.448ZM100.459 106.576C98.9233 106.576 97.6833 106.16 96.7393 105.328C95.7953 104.496 95.3233 103.264 95.3233 101.632C95.3233 100.016 95.7953 98.784 96.7393 97.936C97.6833 97.072 98.9233 96.64 100.459 96.64C101.995 96.64 103.243 97.072 104.203 97.936C105.163 98.784 105.643 100.016 105.643 101.632C105.643 103.264 105.163 104.496 104.203 105.328C103.243 106.16 101.995 106.576 100.459 106.576ZM126.958 94C128.542 94 129.982 93.616 131.278 92.848C132.59 92.064 133.638 91.024 134.422 89.728C135.206 88.416 135.598 86.96 135.598 85.36C135.598 83.76 135.206 82.312 134.422 81.016C133.638 79.704 132.59 78.664 131.278 77.896C129.982 77.112 128.542 76.72 126.958 76.72C125.422 76.72 123.998 77.112 122.686 77.896C121.374 78.68 120.318 79.728 119.518 81.04C118.718 82.352 118.318 83.792 118.318 85.36C118.318 86.96 118.71 88.416 119.494 89.728C120.278 91.024 121.318 92.064 122.614 92.848C123.926 93.616 125.374 94 126.958 94ZM124.078 112L154.318 81.808L149.998 77.44L119.758 107.68L124.078 112ZM126.958 88.48C126.126 88.48 125.398 88.168 124.774 87.544C124.15 86.92 123.838 86.192 123.838 85.36C123.838 84.512 124.15 83.784 124.774 83.176C125.398 82.552 126.126 82.24 126.958 82.24C127.806 82.24 128.534 82.552 129.142 83.176C129.766 83.784 130.078 84.512 130.078 85.36C130.078 86.192 129.766 86.92 129.142 87.544C128.534 88.168 127.806 88.48 126.958 88.48ZM147.118 112.72C148.702 112.72 150.142 112.336 151.438 111.568C152.75 110.784 153.798 109.744 154.582 108.448C155.366 107.136 155.758 105.68 155.758 104.08C155.758 102.48 155.366 101.032 154.582 99.736C153.798 98.424 152.75 97.384 151.438 96.616C150.142 95.832 148.702 95.44 147.118 95.44C145.582 95.44 144.158 95.832 142.846 96.616C141.534 97.4 140.478 98.448 139.677 99.76C138.878 101.072 138.478 102.512 138.478 104.08C138.478 105.68 138.862 107.136 139.63 108.448C140.414 109.744 141.462 110.784 142.774 111.568C144.086 112.336 145.534 112.72 147.118 112.72ZM147.118 107.2C146.286 107.2 145.558 106.888 144.934 106.264C144.31 105.64 143.998 104.912 143.998 104.08C143.998 103.232 144.31 102.504 144.934 101.896C145.558 101.272 146.286 100.96 147.118 100.96C147.966 100.96 148.694 101.272 149.302 101.896C149.926 102.504 150.238 103.232 150.238 104.08C150.238 104.912 149.926 105.64 149.302 106.264C148.694 106.888 147.966 107.2 147.118 107.2Z" fill="white"/>
<path d="M47.26 137H49.708V131.654H55.504V137H57.952V124.04H55.504V129.368H49.708V124.04H47.26V137ZM64.8528 137.27C65.8248 137.27 66.6798 137.054 67.4178 136.622C68.1618 136.184 68.7408 135.581 69.1548 134.813C69.5748 134.039 69.7848 133.148 69.7848 132.14C69.7848 131.138 69.5778 130.253 69.1638 129.485C68.7498 128.711 68.1708 128.105 67.4268 127.667C66.6888 127.229 65.8308 127.01 64.8528 127.01C63.8928 127.01 63.0438 127.226 62.3058 127.658C61.5678 128.09 60.9888 128.693 60.5688 129.467C60.1488 130.235 59.9388 131.126 59.9388 132.14C59.9388 133.142 60.1428 134.03 60.5508 134.804C60.9648 135.572 61.5408 136.175 62.2788 136.613C63.0168 137.051 63.8748 137.27 64.8528 137.27ZM64.8528 134.984C64.0908 134.984 63.5118 134.729 63.1158 134.219C62.7258 133.703 62.5308 133.01 62.5308 132.14C62.5308 131.294 62.7168 130.61 63.0888 130.088C63.4668 129.56 64.0548 129.296 64.8528 129.296C65.6268 129.296 66.2088 129.554 66.5988 130.07C66.9948 130.586 67.1928 131.276 67.1928 132.14C67.1928 132.974 66.9978 133.658 66.6078 134.192C66.2238 134.72 65.6388 134.984 64.8528 134.984ZM74.7069 125.93H77.1189L76.4349 123.77H74.0229L74.7069 125.93ZM74.4639 137.27C75.2139 137.27 75.8439 137.156 76.3539 136.928C76.8699 136.694 77.3439 136.322 77.7759 135.812V137H79.9179V131.06C79.9179 130.616 79.8999 130.214 79.8639 129.854C79.8279 129.494 79.7139 129.134 79.5219 128.774C79.1799 128.126 78.6759 127.67 78.0099 127.406C77.3439 127.142 76.5819 127.01 75.7239 127.01C74.5539 127.01 73.6299 127.262 72.9519 127.766C72.2739 128.27 71.8119 128.924 71.5659 129.728L73.7799 130.43C73.9359 129.986 74.2089 129.677 74.5989 129.503C74.9889 129.329 75.3639 129.242 75.7239 129.242C76.2999 129.242 76.7289 129.35 77.0109 129.566C77.2929 129.776 77.4579 130.109 77.5059 130.565C76.5939 130.697 75.7899 130.826 75.0939 130.952C74.3979 131.072 73.8159 131.216 73.3479 131.384C72.5679 131.672 72.0189 132.065 71.7009 132.563C71.3829 133.055 71.2239 133.64 71.2239 134.318C71.2239 134.858 71.3469 135.353 71.5929 135.803C71.8449 136.247 72.2109 136.604 72.6909 136.874C73.1769 137.138 73.7679 137.27 74.4639 137.27ZM74.9859 135.344C74.5659 135.344 74.2329 135.251 73.9869 135.065C73.7409 134.873 73.6179 134.612 73.6179 134.282C73.6179 134.036 73.6959 133.826 73.8519 133.652C74.0079 133.472 74.2659 133.31 74.6259 133.166C74.9019 133.064 75.2409 132.971 75.6429 132.887C76.0509 132.797 76.6659 132.683 77.4879 132.545C77.4819 132.779 77.4639 133.037 77.4339 133.319C77.4039 133.595 77.3379 133.838 77.2359 134.048C77.1699 134.186 77.0439 134.357 76.8579 134.561C76.6779 134.765 76.4319 134.948 76.1199 135.11C75.8139 135.266 75.4359 135.344 74.9859 135.344ZM82.24 137H84.724V132.068C84.724 131.462 84.79 130.976 84.922 130.61C85.06 130.244 85.234 129.968 85.444 129.782C85.654 129.59 85.879 129.461 86.119 129.395C86.359 129.329 86.584 129.296 86.794 129.296C87.316 129.296 87.718 129.413 88 129.647C88.288 129.881 88.495 130.172 88.621 130.52C88.747 130.868 88.822 131.216 88.846 131.564C88.87 131.906 88.882 132.188 88.882 132.41V137H91.366V131.546C91.366 131.384 91.354 131.126 91.33 130.772C91.306 130.418 91.237 130.028 91.123 129.602C91.009 129.17 90.817 128.756 90.547 128.36C90.283 127.964 89.911 127.637 89.431 127.379C88.951 127.121 88.33 126.992 87.568 126.992C86.866 126.992 86.254 127.109 85.732 127.343C85.21 127.577 84.772 127.889 84.418 128.279V127.28H82.24V137ZM103.137 137V134.966C102.561 135.044 102.036 135.068 101.562 135.038C101.088 135.008 100.743 134.822 100.527 134.48C100.413 134.3 100.35 134.06 100.338 133.76C100.332 133.454 100.329 133.112 100.329 132.734V129.17H103.137V127.28H100.329V124.58H97.8809V127.28H96.2249V129.17H97.8809V132.878C97.8809 133.46 97.8869 133.982 97.8989 134.444C97.9109 134.9 98.0369 135.35 98.2769 135.794C98.5409 136.268 98.9249 136.613 99.4289 136.829C99.9389 137.039 100.515 137.15 101.157 137.162C101.805 137.18 102.465 137.126 103.137 137ZM105.285 137H107.769V132.068C107.769 131.462 107.835 130.976 107.967 130.61C108.105 130.244 108.279 129.968 108.489 129.782C108.699 129.59 108.924 129.461 109.164 129.395C109.404 129.329 109.629 129.296 109.839 129.296C110.361 129.296 110.763 129.413 111.045 129.647C111.333 129.881 111.54 130.172 111.666 130.52C111.792 130.868 111.867 131.216 111.891 131.564C111.915 131.906 111.927 132.188 111.927 132.41V137H114.411V131.546C114.411 131.384 114.399 131.126 114.375 130.772C114.351 130.418 114.282 130.028 114.168 129.602C114.054 129.17 113.862 128.756 113.592 128.36C113.328 127.964 112.956 127.637 112.476 127.379C111.996 127.121 111.375 126.992 110.613 126.992C109.911 126.992 109.299 127.109 108.777 127.343C108.255 127.577 107.817 127.889 107.463 128.279V124.04H105.285V137ZM119.689 125.93H122.101L121.417 123.77H119.005L119.689 125.93ZM119.446 137.27C120.196 137.27 120.826 137.156 121.336 136.928C121.852 136.694 122.326 136.322 122.758 135.812V137H124.9V131.06C124.9 130.616 124.882 130.214 124.846 129.854C124.81 129.494 124.696 129.134 124.504 128.774C124.162 128.126 123.658 127.67 122.992 127.406C122.326 127.142 121.564 127.01 120.706 127.01C119.536 127.01 118.612 127.262 117.934 127.766C117.256 128.27 116.794 128.924 116.548 129.728L118.762 130.43C118.918 129.986 119.191 129.677 119.581 129.503C119.971 129.329 120.346 129.242 120.706 129.242C121.282 129.242 121.711 129.35 121.993 129.566C122.275 129.776 122.44 130.109 122.488 130.565C121.576 130.697 120.772 130.826 120.076 130.952C119.38 131.072 118.798 131.216 118.33 131.384C117.55 131.672 117.001 132.065 116.683 132.563C116.365 133.055 116.206 133.64 116.206 134.318C116.206 134.858 116.329 135.353 116.575 135.803C116.827 136.247 117.193 136.604 117.673 136.874C118.159 137.138 118.75 137.27 119.446 137.27ZM119.968 135.344C119.548 135.344 119.215 135.251 118.969 135.065C118.723 134.873 118.6 134.612 118.6 134.282C118.6 134.036 118.678 133.826 118.834 133.652C118.99 133.472 119.248 133.31 119.608 133.166C119.884 133.064 120.223 132.971 120.625 132.887C121.033 132.797 121.648 132.683 122.47 132.545C122.464 132.779 122.446 133.037 122.416 133.319C122.386 133.595 122.32 133.838 122.218 134.048C122.152 134.186 122.026 134.357 121.84 134.561C121.66 134.765 121.414 134.948 121.102 135.11C120.796 135.266 120.418 135.344 119.968 135.344ZM127.222 137H129.706V132.068C129.706 131.462 129.772 130.976 129.904 130.61C130.042 130.244 130.216 129.968 130.426 129.782C130.636 129.59 130.861 129.461 131.101 129.395C131.341 129.329 131.566 129.296 131.776 129.296C132.298 129.296 132.7 129.413 132.982 129.647C133.27 129.881 133.477 130.172 133.603 130.52C133.729 130.868 133.804 131.216 133.828 131.564C133.852 131.906 133.864 132.188 133.864 132.41V137H136.348V131.546C136.348 131.384 136.336 131.126 136.312 130.772C136.288 130.418 136.219 130.028 136.105 129.602C135.991 129.17 135.799 128.756 135.529 128.36C135.265 127.964 134.893 127.637 134.413 127.379C133.933 127.121 133.312 126.992 132.55 126.992C131.848 126.992 131.236 127.109 130.714 127.343C130.192 127.577 129.754 127.889 129.4 128.279V127.28H127.222V137ZM138.666 137H141.15V132.068C141.15 131.462 141.216 130.976 141.348 130.61C141.486 130.244 141.66 129.968 141.87 129.782C142.08 129.59 142.305 129.461 142.545 129.395C142.785 129.329 143.01 129.296 143.22 129.296C143.742 129.296 144.144 129.413 144.426 129.647C144.714 129.881 144.921 130.172 145.047 130.52C145.173 130.868 145.248 131.216 145.272 131.564C145.296 131.906 145.308 132.188 145.308 132.41V137H147.792V131.546C147.792 131.384 147.78 131.126 147.756 130.772C147.732 130.418 147.663 130.028 147.549 129.602C147.435 129.17 147.243 128.756 146.973 128.36C146.709 127.964 146.337 127.637 145.857 127.379C145.377 127.121 144.756 126.992 143.994 126.992C143.292 126.992 142.68 127.109 142.158 127.343C141.636 127.577 141.198 127.889 140.844 128.279V124.04H138.666V137Z" fill="white"/>
</svg>
