<svg width="1302" height="320" viewBox="0 0 1302 320" fill="none" xmlns="http://www.w3.org/2000/svg">
<mask id="mask0" mask-type="alpha" maskUnits="userSpaceOnUse" x="0" y="0" width="1302" height="320">
<rect width="1302" height="320" rx="16" fill="#C4C4C4"/>
</mask>
<g mask="url(#mask0)">
<path d="M0 16C0 7.16345 7.16344 0 16 0H1286C1294.84 0 1302 7.16344 1302 16V304C1302 312.837 1294.84 320 1286 320H16C7.16347 320 0 312.837 0 304V16Z" fill="#FC8282"/>
<path opacity="0.15" d="M856.606 229.682C718.412 135.641 527.962 245.534 377.028 171.111C298.497 132.389 282.571 97.4465 226.217 39.6825C190.072 2.63242 186.626 -3.8176 152.32 -30.3175C118.013 -56.8173 55.801 -87.4603 55.801 -87.4603V-184.603H1680.03V462.54H1292.45C1292.45 462.54 1085.44 465.594 986.304 385.397C926.009 336.62 927.349 277.823 856.606 229.682Z" fill="white"/>
<path opacity="0.15" d="M912.405 198.571C774.21 104.53 583.761 238.709 432.827 164.286C354.295 125.563 313.184 -11.6667 290.311 -52.2222C277.778 -74.4444 258.641 -94.4444 227.557 -110C196.473 -125.556 111.6 -118.571 111.6 -118.571V-215.714H1735.83V390.794H1372.38C1372.38 390.794 1117.51 398.571 1034.56 342.857C962.173 294.234 983.148 246.712 912.405 198.571Z" fill="white"/>
<path opacity="0.15" d="M639.405 270.571C501.21 176.53 310.761 310.709 159.827 236.286C81.2954 197.563 40.1838 60.3333 17.3108 19.7778C4.77768 -2.44444 -14.3595 -22.4444 -45.4432 -38C-76.527 -53.5555 -161.4 -46.5714 -161.4 -46.5714V-143.714H1462.83V462.794H1099.38C1099.38 462.794 844.508 470.571 761.562 414.857C689.173 366.234 710.148 318.712 639.405 270.571Z" fill="white"/>
</g>
</svg>
