<svg width="365" height="84" viewBox="0 0 365 84" fill="none" xmlns="http://www.w3.org/2000/svg">
<rect x="22" width="343" height="84" rx="12" fill="white"/>
<path d="M4.374 49H6.543V38.074H10.737V36.04H0.18V38.074H4.374V49ZM12.158 49H14.354V44.005C14.354 43.219 14.465 42.613 14.687 42.187C14.915 41.755 15.203 41.458 15.551 41.296C15.905 41.128 16.265 41.044 16.631 41.044C17.147 41.044 17.558 41.158 17.864 41.386C18.17 41.608 18.395 41.893 18.539 42.241C18.689 42.583 18.785 42.94 18.827 43.312C18.875 43.684 18.899 44.02 18.899 44.32V49H21.095V43.573C21.095 43.345 21.074 43.042 21.032 42.664C20.996 42.286 20.912 41.887 20.78 41.467C20.648 41.047 20.444 40.651 20.168 40.279C19.892 39.901 19.517 39.595 19.043 39.361C18.575 39.121 17.984 39.001 17.27 39.001C16.568 39.001 15.95 39.124 15.416 39.37C14.888 39.61 14.447 39.94 14.093 40.36V36.04H12.158V49ZM26.6206 37.93H28.7626L28.0786 35.77H25.9366L26.6206 37.93ZM27.7366 49.27C28.7086 49.27 29.5576 49.054 30.2836 48.622C31.0096 48.184 31.5736 47.581 31.9756 46.813C32.3836 46.039 32.5876 45.148 32.5876 44.14C32.5876 43.372 32.4676 42.67 32.2276 42.034C31.9876 41.392 31.6486 40.843 31.2106 40.387C31.3606 40.351 31.5016 40.3 31.6336 40.234C32.4136 39.85 32.7166 38.992 32.5426 37.66L30.9046 37.669C30.9106 37.981 30.8896 38.284 30.8416 38.578C30.7996 38.866 30.6256 39.079 30.3196 39.217C30.1576 39.295 29.9806 39.325 29.7886 39.307C29.5966 39.289 29.3686 39.247 29.1046 39.181C28.6726 39.067 28.2166 39.01 27.7366 39.01C26.7826 39.01 25.9426 39.226 25.2166 39.658C24.4906 40.09 23.9236 40.69 23.5156 41.458C23.1076 42.226 22.9036 43.12 22.9036 44.14C22.9036 45.142 23.1016 46.03 23.4976 46.804C23.8996 47.572 24.4636 48.175 25.1896 48.613C25.9156 49.051 26.7646 49.27 27.7366 49.27ZM27.7366 47.236C26.9026 47.236 26.2696 46.957 25.8376 46.399C25.4116 45.835 25.1986 45.082 25.1986 44.14C25.1986 43.222 25.4026 42.478 25.8106 41.908C26.2246 41.332 26.8666 41.044 27.7366 41.044C28.5886 41.044 29.2276 41.326 29.6536 41.89C30.0796 42.448 30.2926 43.198 30.2926 44.14C30.2926 45.052 30.0796 45.796 29.6536 46.372C29.2336 46.948 28.5946 47.236 27.7366 47.236ZM34.8209 37.804H36.9899V35.815H34.8209V37.804ZM34.8209 49H36.9899V39.28H34.8209V49ZM47.1863 49.27C47.6903 49.27 48.1493 49.201 48.5633 49.063C48.9833 48.931 49.3583 48.745 49.6883 48.505V49.432C49.7003 50.122 49.4873 50.644 49.0493 50.998C48.6173 51.352 48.0623 51.529 47.3843 51.529C47.0003 51.529 46.6373 51.442 46.2953 51.268C45.9533 51.094 45.6923 50.833 45.5123 50.485L43.5143 51.475C43.8923 52.135 44.4263 52.651 45.1163 53.023C45.8123 53.401 46.5653 53.59 47.3753 53.59C48.4733 53.59 49.4153 53.365 50.2013 52.915C50.9933 52.471 51.5003 51.778 51.7223 50.836C51.7703 50.62 51.8033 50.401 51.8213 50.179C51.8453 49.957 51.8573 49.72 51.8573 49.468V39.28H49.9583V39.982C49.6163 39.67 49.2203 39.43 48.7703 39.262C48.3203 39.094 47.8193 39.01 47.2673 39.01C46.3493 39.01 45.5513 39.232 44.8733 39.676C44.2013 40.12 43.6793 40.729 43.3073 41.503C42.9353 42.277 42.7493 43.156 42.7493 44.14C42.7493 45.112 42.9323 45.985 43.2983 46.759C43.6643 47.533 44.1803 48.145 44.8463 48.595C45.5123 49.045 46.2923 49.27 47.1863 49.27ZM47.5193 47.326C46.9553 47.326 46.4903 47.185 46.1243 46.903C45.7583 46.615 45.4853 46.231 45.3053 45.751C45.1313 45.271 45.0443 44.734 45.0443 44.14C45.0443 43.552 45.1343 43.018 45.3143 42.538C45.5003 42.052 45.7793 41.668 46.1513 41.386C46.5293 41.098 47.0093 40.954 47.5913 40.954C48.4193 40.954 49.0193 41.248 49.3913 41.836C49.7693 42.424 49.9583 43.192 49.9583 44.14C49.9583 45.082 49.7693 45.85 49.3913 46.444C49.0193 47.032 48.3953 47.326 47.5193 47.326ZM54.5611 37.804H56.7301V35.815H54.5611V37.804ZM54.5611 49H56.7301V39.28H54.5611V49ZM62.144 49.27C62.918 49.27 63.575 49.144 64.115 48.892C64.661 48.634 65.141 48.235 65.555 47.695V49H67.454V43.033C67.454 42.613 67.436 42.226 67.4 41.872C67.364 41.512 67.259 41.161 67.085 40.819C66.767 40.177 66.278 39.715 65.618 39.433C64.964 39.151 64.205 39.01 63.341 39.01C62.201 39.01 61.292 39.259 60.614 39.757C59.936 40.255 59.477 40.915 59.237 41.737L61.217 42.358C61.379 41.86 61.664 41.509 62.072 41.305C62.48 41.101 62.903 40.999 63.341 40.999C64.001 40.999 64.487 41.134 64.799 41.404C65.111 41.668 65.288 42.079 65.33 42.637C64.478 42.763 63.686 42.886 62.954 43.006C62.228 43.12 61.61 43.261 61.1 43.429C60.332 43.693 59.771 44.068 59.417 44.554C59.063 45.034 58.886 45.628 58.886 46.336C58.886 46.87 59.009 47.359 59.255 47.803C59.507 48.247 59.876 48.604 60.362 48.874C60.848 49.138 61.442 49.27 62.144 49.27ZM62.576 47.542C62.066 47.542 61.676 47.425 61.406 47.191C61.142 46.957 61.01 46.663 61.01 46.309C61.01 45.991 61.112 45.733 61.316 45.535C61.526 45.337 61.817 45.169 62.189 45.031C62.531 44.917 62.942 44.818 63.422 44.734C63.902 44.644 64.529 44.539 65.303 44.419C65.297 44.647 65.282 44.902 65.258 45.184C65.234 45.46 65.177 45.709 65.087 45.931C65.015 46.153 64.874 46.39 64.664 46.642C64.46 46.894 64.184 47.107 63.836 47.281C63.488 47.455 63.068 47.542 62.576 47.542ZM69.7791 49H71.9751V44.005C71.9751 43.219 72.0861 42.613 72.3081 42.187C72.5361 41.755 72.8241 41.458 73.1721 41.296C73.5261 41.128 73.8861 41.044 74.2521 41.044C74.7681 41.044 75.1791 41.158 75.4851 41.386C75.7911 41.608 76.0161 41.893 76.1601 42.241C76.3101 42.583 76.4061 42.94 76.4481 43.312C76.4961 43.684 76.5201 44.02 76.5201 44.32V49H78.7161V43.573C78.7161 43.345 78.6951 43.042 78.6531 42.664C78.6171 42.286 78.5331 41.887 78.4011 41.467C78.2691 41.047 78.0651 40.651 77.7891 40.279C77.5131 39.901 77.1381 39.595 76.6641 39.361C76.1961 39.121 75.6051 39.001 74.8911 39.001C74.1891 39.001 73.5711 39.124 73.0371 39.37C72.5091 39.61 72.0681 39.94 71.7141 40.36V39.28H69.7791V49ZM90.3652 49V47.182C89.7592 47.272 89.2192 47.296 88.7452 47.254C88.2712 47.212 87.9262 47.011 87.7102 46.651C87.5962 46.465 87.5332 46.225 87.5212 45.931C87.5152 45.631 87.5122 45.289 87.5122 44.905V40.981H90.3652V39.28H87.5122V36.58H85.3522V39.28H83.5882V40.981H85.3522V45.031C85.3522 45.589 85.3582 46.087 85.3702 46.525C85.3822 46.957 85.4992 47.383 85.7212 47.803C85.9732 48.265 86.3422 48.604 86.8282 48.82C87.3142 49.03 87.8632 49.141 88.4752 49.153C89.0932 49.171 89.7232 49.12 90.3652 49ZM94.2553 38.092L96.5323 36.85L98.8093 38.092L99.6013 36.715L96.5323 35.032L93.4633 36.715L94.2553 38.092ZM95.1733 49.27C95.9473 49.27 96.6043 49.144 97.1443 48.892C97.6903 48.634 98.1703 48.235 98.5843 47.695V49H100.483V43.033C100.483 42.613 100.465 42.226 100.429 41.872C100.393 41.512 100.288 41.161 100.114 40.819C99.7963 40.177 99.3073 39.715 98.6473 39.433C97.9933 39.151 97.2343 39.01 96.3703 39.01C95.2303 39.01 94.3213 39.259 93.6433 39.757C92.9653 40.255 92.5063 40.915 92.2663 41.737L94.2463 42.358C94.4083 41.86 94.6933 41.509 95.1013 41.305C95.5093 41.101 95.9323 40.999 96.3703 40.999C97.0303 40.999 97.5163 41.134 97.8283 41.404C98.1403 41.668 98.3173 42.079 98.3593 42.637C97.5073 42.763 96.7153 42.886 95.9833 43.006C95.2573 43.12 94.6393 43.261 94.1293 43.429C93.3613 43.693 92.8003 44.068 92.4463 44.554C92.0923 45.034 91.9153 45.628 91.9153 46.336C91.9153 46.87 92.0383 47.359 92.2843 47.803C92.5363 48.247 92.9053 48.604 93.3913 48.874C93.8773 49.138 94.4713 49.27 95.1733 49.27ZM95.6053 47.542C95.0953 47.542 94.7053 47.425 94.4353 47.191C94.1713 46.957 94.0393 46.663 94.0393 46.309C94.0393 45.991 94.1413 45.733 94.3453 45.535C94.5553 45.337 94.8463 45.169 95.2183 45.031C95.5603 44.917 95.9713 44.818 96.4513 44.734C96.9313 44.644 97.5583 44.539 98.3323 44.419C98.3263 44.647 98.3113 44.902 98.2873 45.184C98.2633 45.46 98.2063 45.709 98.1163 45.931C98.0443 46.153 97.9033 46.39 97.6933 46.642C97.4893 46.894 97.2133 47.107 96.8653 47.281C96.5173 47.455 96.0973 47.542 95.6053 47.542ZM95.3533 52.492H97.5763V50.503H95.3533V52.492ZM102.808 53.32H104.995V48.505C105.325 48.745 105.697 48.931 106.111 49.063C106.531 49.201 106.993 49.27 107.497 49.27C108.397 49.27 109.177 49.045 109.837 48.595C110.503 48.145 111.019 47.533 111.385 46.759C111.751 45.985 111.934 45.112 111.934 44.14C111.934 43.156 111.748 42.277 111.376 41.503C111.01 40.729 110.488 40.12 109.81 39.676C109.132 39.232 108.334 39.01 107.416 39.01C106.864 39.01 106.363 39.094 105.913 39.262C105.463 39.43 105.067 39.67 104.725 39.982V39.28H102.808V53.32ZM107.164 47.326C106.294 47.326 105.67 47.032 105.292 46.444C104.914 45.85 104.725 45.082 104.725 44.14C104.725 43.192 104.911 42.424 105.283 41.836C105.661 41.248 106.264 40.954 107.092 40.954C107.674 40.954 108.151 41.098 108.523 41.386C108.901 41.668 109.18 42.052 109.36 42.538C109.546 43.018 109.639 43.552 109.639 44.14C109.639 44.734 109.549 45.271 109.369 45.751C109.195 46.231 108.925 46.615 108.559 46.903C108.193 47.185 107.728 47.326 107.164 47.326ZM117.702 49H119.871V35.77H117.702V49ZM126.212 49.279C126.914 49.279 127.529 49.159 128.057 48.919C128.591 48.673 129.035 48.34 129.389 47.92V49H131.306V39.28H129.128V44.275C129.128 45.061 129.014 45.67 128.786 46.102C128.564 46.528 128.279 46.825 127.931 46.993C127.583 47.155 127.223 47.236 126.851 47.236C126.335 47.236 125.924 47.125 125.618 46.903C125.312 46.675 125.084 46.39 124.934 46.048C124.79 45.7 124.694 45.34 124.646 44.968C124.604 44.596 124.583 44.26 124.583 43.96V39.28H122.387V44.707C122.387 44.935 122.405 45.238 122.441 45.616C122.483 45.994 122.57 46.393 122.702 46.813C122.834 47.233 123.038 47.632 123.314 48.01C123.59 48.382 123.962 48.688 124.43 48.928C124.904 49.162 125.498 49.279 126.212 49.279ZM135.112 53.32H137.146L142.564 39.28H140.395L137.758 46.237L135.04 39.28H132.781L136.714 48.928L135.112 53.32ZM145.571 38.092L147.848 36.85L150.125 38.092L150.917 36.715L147.848 35.032L144.779 36.715L145.571 38.092ZM147.974 49.27C148.91 49.27 149.765 49.03 150.539 48.55C151.319 48.064 151.895 47.38 152.267 46.498L150.125 45.85C149.693 46.774 148.934 47.236 147.848 47.236C147.11 47.236 146.528 47.023 146.102 46.597C145.676 46.165 145.421 45.547 145.337 44.743H152.375C152.459 43.573 152.33 42.559 151.988 41.701C151.646 40.843 151.121 40.18 150.413 39.712C149.711 39.244 148.856 39.01 147.848 39.01C146.894 39.01 146.054 39.226 145.328 39.658C144.602 40.084 144.035 40.69 143.627 41.476C143.219 42.262 143.015 43.186 143.015 44.248C143.015 45.232 143.222 46.102 143.636 46.858C144.056 47.614 144.638 48.205 145.382 48.631C146.126 49.057 146.99 49.27 147.974 49.27ZM147.938 40.909C148.61 40.909 149.126 41.086 149.486 41.44C149.852 41.788 150.083 42.343 150.179 43.105H145.391C145.649 41.641 146.498 40.909 147.938 40.909ZM146.597 52.492H148.82V50.503H146.597V52.492ZM154.101 49H156.297V44.005C156.297 43.219 156.408 42.613 156.63 42.187C156.858 41.755 157.146 41.458 157.494 41.296C157.848 41.128 158.208 41.044 158.574 41.044C159.09 41.044 159.501 41.158 159.807 41.386C160.113 41.608 160.338 41.893 160.482 42.241C160.632 42.583 160.728 42.94 160.77 43.312C160.818 43.684 160.842 44.02 160.842 44.32V49H163.038V43.573C163.038 43.345 163.017 43.042 162.975 42.664C162.939 42.286 162.855 41.887 162.723 41.467C162.591 41.047 162.387 40.651 162.111 40.279C161.835 39.901 161.46 39.595 160.986 39.361C160.518 39.121 159.927 39.001 159.213 39.001C158.511 39.001 157.893 39.124 157.359 39.37C156.831 39.61 156.39 39.94 156.036 40.36V39.28H154.101V49Z" fill="#070417"/>
<path d="M230.643 53.32C227.891 53.32 225.875 52.52 224.595 50.92C223.337 49.2987 222.665 47.1867 222.579 44.584L222.547 41.832L222.579 38.984C222.643 36.4027 223.315 34.312 224.595 32.712C225.897 31.0907 227.913 30.28 230.643 30.28C233.395 30.28 235.411 31.0907 236.691 32.712C237.993 34.312 238.675 36.4027 238.739 38.984C238.761 39.5813 238.771 40.5307 238.771 41.832C238.771 43.0907 238.761 44.008 238.739 44.584C238.654 47.1867 237.971 49.2987 236.691 50.92C235.433 52.52 233.417 53.32 230.643 53.32ZM230.643 50.664C232.286 50.664 233.523 50.12 234.355 49.032C235.187 47.944 235.625 46.408 235.667 44.424C235.689 43.8053 235.699 42.92 235.699 41.768C235.699 40.5947 235.689 39.72 235.667 39.144C235.625 37.1813 235.177 35.656 234.323 34.568C233.491 33.4587 232.265 32.904 230.643 32.904C229.022 32.904 227.795 33.4587 226.963 34.568C226.131 35.656 225.694 37.1813 225.651 39.144L225.619 41.768L225.651 44.424C225.694 46.408 226.131 47.944 226.963 49.032C227.795 50.12 229.022 50.664 230.643 50.664ZM250.893 53.32C248.141 53.32 246.125 52.52 244.845 50.92C243.587 49.2987 242.915 47.1867 242.829 44.584L242.797 41.832L242.829 38.984C242.893 36.4027 243.565 34.312 244.845 32.712C246.147 31.0907 248.163 30.28 250.893 30.28C253.645 30.28 255.661 31.0907 256.941 32.712C258.243 34.312 258.925 36.4027 258.989 38.984C259.011 39.5813 259.021 40.5307 259.021 41.832C259.021 43.0907 259.011 44.008 258.989 44.584C258.904 47.1867 258.221 49.2987 256.941 50.92C255.683 52.52 253.667 53.32 250.893 53.32ZM250.893 50.664C252.536 50.664 253.773 50.12 254.605 49.032C255.437 47.944 255.875 46.408 255.917 44.424C255.939 43.8053 255.949 42.92 255.949 41.768C255.949 40.5947 255.939 39.72 255.917 39.144C255.875 37.1813 255.427 35.656 254.573 34.568C253.741 33.4587 252.515 32.904 250.893 32.904C249.272 32.904 248.045 33.4587 247.213 34.568C246.381 35.656 245.944 37.1813 245.901 39.144L245.869 41.768L245.901 44.424C245.944 46.408 246.381 47.944 247.213 49.032C248.045 50.12 249.272 50.664 250.893 50.664ZM263.975 41.8C263.762 41.8 263.591 41.736 263.463 41.608C263.335 41.4587 263.271 41.2773 263.271 41.064V38.92C263.271 38.6853 263.335 38.504 263.463 38.376C263.591 38.2267 263.762 38.152 263.975 38.152H266.183C266.418 38.152 266.599 38.2267 266.727 38.376C266.877 38.504 266.951 38.6853 266.951 38.92V41.064C266.951 41.2773 266.877 41.4587 266.727 41.608C266.578 41.736 266.397 41.8 266.183 41.8H263.975ZM263.975 53C263.762 53 263.591 52.936 263.463 52.808C263.335 52.6587 263.271 52.4773 263.271 52.264V50.12C263.271 49.8853 263.335 49.704 263.463 49.576C263.591 49.4267 263.762 49.352 263.975 49.352H266.183C266.418 49.352 266.599 49.4267 266.727 49.576C266.877 49.704 266.951 49.8853 266.951 50.12V52.264C266.951 52.4773 266.877 52.6587 266.727 52.808C266.578 52.936 266.397 53 266.183 53H263.975ZM278.66 53.32C276.996 53.32 275.556 53.0533 274.34 52.52C273.124 51.9653 272.196 51.2507 271.556 50.376C270.937 49.5013 270.606 48.5947 270.564 47.656C270.564 47.464 270.628 47.3147 270.756 47.208C270.884 47.08 271.044 47.016 271.236 47.016H272.676C272.91 47.016 273.102 47.0693 273.252 47.176C273.401 47.2613 273.518 47.4427 273.604 47.72C273.881 48.808 274.478 49.576 275.396 50.024C276.334 50.472 277.433 50.696 278.692 50.696C280.228 50.696 281.444 50.3333 282.34 49.608C283.257 48.8613 283.716 47.8053 283.716 46.44C283.716 43.8373 282.126 42.536 278.948 42.536H275.94C275.726 42.536 275.545 42.472 275.396 42.344C275.268 42.1947 275.204 42.0133 275.204 41.8V40.968C275.204 40.648 275.321 40.3707 275.556 40.136L281.796 33.224H272.324C272.11 33.224 271.929 33.16 271.78 33.032C271.652 32.904 271.588 32.7333 271.588 32.52V31.368C271.588 31.1333 271.652 30.952 271.78 30.824C271.929 30.6747 272.11 30.6 272.324 30.6H284.996C285.23 30.6 285.412 30.6747 285.54 30.824C285.689 30.952 285.764 31.1333 285.764 31.368V32.424C285.764 32.6587 285.657 32.904 285.444 33.16L279.204 40.168H279.716C281.892 40.232 283.609 40.7973 284.868 41.864C286.148 42.9307 286.788 44.488 286.788 46.536C286.788 47.944 286.436 49.16 285.732 50.184C285.049 51.1867 284.089 51.9653 282.852 52.52C281.614 53.0533 280.217 53.32 278.66 53.32ZM290.617 53C290.403 53 290.222 52.936 290.073 52.808C289.945 52.6587 289.881 52.4773 289.881 52.264V51.304C289.881 50.8133 290.147 50.344 290.681 49.896L297.657 42.952C299.235 41.608 300.323 40.5093 300.921 39.656C301.518 38.8027 301.817 37.896 301.817 36.936C301.817 35.6773 301.465 34.696 300.761 33.992C300.057 33.2667 299.033 32.904 297.689 32.904C296.409 32.904 295.395 33.2773 294.649 34.024C293.902 34.7707 293.443 35.7733 293.273 37.032C293.23 37.2667 293.123 37.448 292.953 37.576C292.782 37.704 292.611 37.768 292.441 37.768H290.905C290.713 37.768 290.553 37.704 290.424 37.576C290.297 37.448 290.233 37.2987 290.233 37.128C290.275 35.9973 290.574 34.9093 291.129 33.864C291.705 32.7973 292.547 31.9333 293.657 31.272C294.766 30.5893 296.11 30.248 297.689 30.248C300.078 30.248 301.87 30.8773 303.065 32.136C304.281 33.3733 304.889 34.952 304.889 36.872C304.889 38.216 304.558 39.432 303.897 40.52C303.257 41.5867 302.243 42.7173 300.857 43.912L294.553 50.312H304.633C304.867 50.312 305.049 50.376 305.177 50.504C305.305 50.632 305.369 50.8133 305.369 51.048V52.264C305.369 52.4773 305.294 52.6587 305.145 52.808C305.017 52.936 304.846 53 304.633 53H290.617ZM309.944 41.8C309.731 41.8 309.56 41.736 309.432 41.608C309.304 41.4587 309.24 41.2773 309.24 41.064V38.92C309.24 38.6853 309.304 38.504 309.432 38.376C309.56 38.2267 309.731 38.152 309.944 38.152H312.152C312.387 38.152 312.568 38.2267 312.696 38.376C312.845 38.504 312.92 38.6853 312.92 38.92V41.064C312.92 41.2773 312.845 41.4587 312.696 41.608C312.547 41.736 312.365 41.8 312.152 41.8H309.944ZM309.944 53C309.731 53 309.56 52.936 309.432 52.808C309.304 52.6587 309.24 52.4773 309.24 52.264V50.12C309.24 49.8853 309.304 49.704 309.432 49.576C309.56 49.4267 309.731 49.352 309.944 49.352H312.152C312.387 49.352 312.568 49.4267 312.696 49.576C312.845 49.704 312.92 49.8853 312.92 50.12V52.264C312.92 52.4773 312.845 52.6587 312.696 52.808C312.547 52.936 312.365 53 312.152 53H309.944ZM323.988 53C323.775 53 323.604 52.936 323.476 52.808C323.348 52.6587 323.284 52.4773 323.284 52.264V34.216L317.908 38.344C317.759 38.472 317.599 38.536 317.428 38.536C317.236 38.536 317.055 38.4293 316.884 38.216L316.116 37.224C316.01 37.0747 315.956 36.9253 315.956 36.776C315.956 36.5413 316.063 36.3493 316.276 36.2L323.22 30.824C323.455 30.6747 323.732 30.6 324.052 30.6H325.556C325.77 30.6 325.94 30.6747 326.068 30.824C326.218 30.952 326.292 31.1227 326.292 31.336V52.264C326.292 52.4773 326.218 52.6587 326.068 52.808C325.94 52.936 325.77 53 325.556 53H323.988ZM338.862 53.32C336.11 53.32 334.094 52.52 332.814 50.92C331.555 49.2987 330.883 47.1867 330.798 44.584L330.766 41.832L330.798 38.984C330.862 36.4027 331.534 34.312 332.814 32.712C334.115 31.0907 336.131 30.28 338.862 30.28C341.614 30.28 343.63 31.0907 344.91 32.712C346.211 34.312 346.894 36.4027 346.958 38.984C346.979 39.5813 346.99 40.5307 346.99 41.832C346.99 43.0907 346.979 44.008 346.958 44.584C346.873 47.1867 346.19 49.2987 344.91 50.92C343.651 52.52 341.635 53.32 338.862 53.32ZM338.862 50.664C340.505 50.664 341.742 50.12 342.574 49.032C343.406 47.944 343.843 46.408 343.886 44.424C343.907 43.8053 343.918 42.92 343.918 41.768C343.918 40.5947 343.907 39.72 343.886 39.144C343.843 37.1813 343.395 35.656 342.542 34.568C341.71 33.4587 340.483 32.904 338.862 32.904C337.241 32.904 336.014 33.4587 335.182 34.568C334.35 35.656 333.913 37.1813 333.87 39.144L333.838 41.768L333.87 44.424C333.913 46.408 334.35 47.944 335.182 49.032C336.014 50.12 337.241 50.664 338.862 50.664Z" fill="#070417"/>
<rect x="178" y="26" width="32" height="32" rx="8" fill="#46A3C1"/>
<path d="M194 41.0625V37.9375" stroke="white" stroke-width="1.4" stroke-linecap="round" stroke-linejoin="round"/>
<path d="M194 35.4375V34.8125" stroke="white" stroke-width="1.4" stroke-linecap="round" stroke-linejoin="round"/>
<path d="M189.156 37.1562L188.688 36.6875" stroke="white" stroke-width="1.4" stroke-linecap="round" stroke-linejoin="round"/>
<path d="M194 43.875C194.69 43.875 195.25 43.3154 195.25 42.625C195.25 41.9346 194.69 41.375 194 41.375C193.31 41.375 192.75 41.9346 192.75 42.625C192.75 43.3154 193.31 43.875 194 43.875Z" stroke="white" stroke-width="1.4" stroke-miterlimit="10"/>
<path d="M194 35.75C192.64 35.75 191.311 36.1532 190.18 36.9086C189.05 37.6641 188.169 38.7378 187.648 39.9941C187.128 41.2503 186.992 42.6326 187.257 43.9662C187.522 45.2999 188.177 46.5249 189.139 47.4864C190.1 48.4478 191.325 49.1026 192.659 49.3679C193.992 49.6332 195.375 49.497 196.631 48.9767C197.887 48.4563 198.961 47.5751 199.716 46.4445C200.472 45.314 200.875 43.9847 200.875 42.625C200.875 40.8016 200.151 39.053 198.861 37.7636C197.572 36.4743 195.823 35.75 194 35.75Z" stroke="white" stroke-width="1.4" stroke-miterlimit="10"/>
</svg>
